<svg width="231" height="86" fill="none" xmlns="http://www.w3.org/2000/svg"><path d="M117.848 46.392c-1.587 0-3.127-.196-4.62-.588-1.494-.392-2.707-.915-3.64-1.568l1.82-4.088c.877.579 1.894 1.045 3.052 1.4 1.157.355 2.296.532 3.416.532 2.128 0 3.192-.532 3.192-1.596 0-.56-.308-.97-.924-1.232-.598-.28-1.568-.57-2.912-.868-1.475-.317-2.707-.653-3.696-1.008a6.337 6.337 0 01-2.548-1.764c-.71-.803-1.064-1.885-1.064-3.248 0-1.195.326-2.268.98-3.22.653-.97 1.624-1.736 2.912-2.296 1.306-.56 2.902-.84 4.788-.84 1.288 0 2.557.15 3.808.448 1.25.28 2.352.7 3.304 1.26l-1.708 4.116c-1.867-1.008-3.678-1.512-5.432-1.512-1.102 0-1.904.168-2.408.504-.504.317-.756.737-.756 1.26s.298.915.896 1.176c.597.261 1.558.532 2.884.812 1.493.317 2.725.663 3.696 1.036a6.108 6.108 0 012.548 1.736c.728.784 1.092 1.857 1.092 3.22 0 1.176-.327 2.24-.98 3.192-.654.952-1.634 1.717-2.94 2.296-1.307.56-2.894.84-4.76.84zM148.737 26.4V46h-5.544v-7.644h-7.56V46h-5.544V26.4h5.544v7.364h7.56V26.4h5.544zm18.042 15.792h-8.288L156.951 46h-5.656l8.652-19.6h5.46l8.68 19.6h-5.768l-1.54-3.808zm-1.624-4.088l-2.52-6.272-2.52 6.272h5.04zm20.072 2.688h-3.024V46h-5.544V26.4h8.96c1.773 0 3.313.299 4.62.896 1.307.579 2.315 1.419 3.024 2.52.709 1.083 1.064 2.361 1.064 3.836 0 1.419-.336 2.66-1.008 3.724-.653 1.045-1.596 1.867-2.828 2.464l4.228 6.16h-5.936l-3.556-5.208zm3.5-7.14c0-.915-.289-1.624-.868-2.128s-1.437-.756-2.576-.756h-3.08v5.74h3.08c1.139 0 1.997-.243 2.576-.728.579-.504.868-1.213.868-2.128zm17.219 5.236l-2.072 2.212V46h-5.488V26.4h5.488v8.148l7.588-8.148h6.104l-8.008 8.68L217.986 46h-6.44l-5.6-7.112z" fill="#1D1D3D"/><path d="M111.324 59.4h8.904c2.128 0 4.004.41 5.628 1.232 1.642.803 2.912 1.941 3.808 3.416.914 1.475 1.372 3.192 1.372 5.152s-.458 3.677-1.372 5.152c-.896 1.475-2.166 2.623-3.808 3.444-1.624.803-3.5 1.204-5.628 1.204h-8.904V59.4zm8.68 15.876c1.96 0 3.518-.541 4.676-1.624 1.176-1.101 1.764-2.585 1.764-4.452s-.588-3.341-1.764-4.424c-1.158-1.101-2.716-1.652-4.676-1.652h-4.144v12.152h4.144zm29.901-3.752c0 .056-.028.448-.084 1.176h-11.396c.205.933.69 1.67 1.456 2.212.765.541 1.717.812 2.856.812.784 0 1.474-.112 2.072-.336a5.207 5.207 0 001.708-1.12l2.324 2.52c-1.419 1.624-3.491 2.436-6.216 2.436-1.699 0-3.202-.327-4.508-.98-1.307-.672-2.315-1.596-3.024-2.772-.71-1.176-1.064-2.51-1.064-4.004 0-1.475.345-2.8 1.036-3.976a7.344 7.344 0 012.884-2.772c1.232-.672 2.604-1.008 4.116-1.008 1.474 0 2.809.317 4.004.952a6.838 6.838 0 012.8 2.744c.69 1.176 1.036 2.548 1.036 4.116zm-7.812-4.508c-.99 0-1.82.28-2.492.84-.672.56-1.083 1.325-1.232 2.296h7.42c-.15-.952-.56-1.708-1.232-2.268-.672-.579-1.494-.868-2.464-.868zm16.564-3.976v5.18h9.072v3.64h-9.072V79h-4.536V59.4h14.812v3.64h-10.276zm13.765.896h4.368V79h-4.368V63.936zm2.184-2.1c-.803 0-1.456-.233-1.96-.7a2.27 2.27 0 01-.756-1.736c0-.69.252-1.27.756-1.736.504-.467 1.157-.7 1.96-.7.803 0 1.456.224 1.96.672.504.448.756 1.008.756 1.68 0 .728-.252 1.335-.756 1.82-.504.467-1.157.7-1.96.7z" fill="#6E76DA"/><path d="M59.295 21.988s.577-3.097 2.425-5.488c1.847-2.384 5.754-4.372 5.754-4.372L22.562 5.524l36.733 16.464z" fill="#A3A9FF"/><path d="M59.295 21.988s-5.099.521-8.919 4.05c-3.82 3.528-4.096 7.026-4.096 7.026L22.561 5.524l36.733 16.464z" fill="#EDE6F3"/><path d="M28.794 41.403s1.762-4.352 6.812-6.852c5.058-2.5 10.674-1.495 10.674-1.495L22.562 5.524l6.232 35.879z" fill="#A3A9FF"/><path d="M28.794 41.403s-2.899-1.898-7.326-1.684c-4.428.214-7.884 3.671-7.884 3.671l8.978-37.866 6.232 35.88z" fill="#EDE6F3"/><path d="M2.92 42.28s2.305-2.742 5.845-2.04c3.547.703 4.819 3.15 4.819 3.15l8.978-37.866L2.919 42.281z" fill="#A3A9FF"/><path d="M53.08 75.423a.877.877 0 001.602-.719L22.218 2.614a.877.877 0 00-1.602.72l32.464 72.09z" fill="#1D1D3D"/><path d="M25.237 25.359s1.486-3.241 4.327-4.622c2.833-1.381 6.096-.048 6.096-.048L22.562 5.524l2.675 19.835z" fill="#fff"/><path d="M52.73 15.565s-7.783-1.202-11.494.509c-3.71 1.71-5.583 4.614-5.583 4.614L22.562 5.525l30.169 10.04z" fill="#C5C9FF"/><path d="M52.73 15.565s1.17-1.533 4.765-2.958c3.593-1.419 9.98-.479 9.98-.479L22.561 5.524l30.169 10.04zM2.92 42.28s3.052-4.26 5.746-5.91c2.694-1.65 4.732-1.395 4.732-1.395l9.164-29.45L2.919 42.28z" fill="#fff"/><path d="M13.399 34.975s2.593-5.15 5.59-7.277c2.999-2.126 6.248-2.34 6.248-2.34L22.57 5.526l-9.17 29.45z" fill="#C5C9FF"/><path d="M64.892 62.267c3.379 2.345 7.419.806 7.419.806 2.644-2.308 4.076-3.481 6.316-5.716.178-.178-1.91 10.334-1.91 10.334-.478.683-.922 1.074-1.615 1.685-.426.377-5.763 4.984-8.814 3.225-1.322-.768-1.675-2.426-2.057-4.25-.105-.507-.922-7.183.661-6.084zM56.96 76.998c0 3.298 10.503 5.35 10.503 5.35.14-.37-4.04-2.785-.66-5.13 1.65-1.143-9.842-2.14-9.843-.22zm-20.419-11.03c-5.141 2.345-8.373 16.893-8.373 16.893.32.147 8.667-8.501 17.194-9.174 4.052-.32 5.757.803 6.163.013 1.025-1.995-8.819-10.545-14.984-7.732zm2.865-26.933c-1.176-.49-6.978.82-11.826 9.101-4.731 8.088-3.47 15.982-3.488 16.883 0 0 1.799-5.24 11.494-3.481 7.614 1.378 7.967-20.766 3.82-22.503z" fill="#85D0FF"/><path d="M37.533 40.087c-4.357 6.316-4.942 16.453-3.636 20.997 3.368 11.727 19.631 17.531 31.473 17.15 2.277-.073 5.472-.513 5.472-.513 8.3.916 18.509 7.475 18.509 7.475-7.198-7.035-7.051-9.674-7.051-9.674-.338-.066-2.46-.073-2.204-.806 0 0 .175-.941.588-1.43 0 0 .11-.842.294-2.748.277-2.875 1.91-4.287 1.91-4.287-.178-.189-2.476.99-3.747 2.018-4.15 3.357-5.655 5.64-5.655 5.64a4.124 4.124 0 01-.955-.146 8.15 8.15 0 01-3.526-1.759 15.008 15.008 0 01-2.864-3.444c-.361.036-6.317 5.149-16.586-1.279-7.211-4.511-12.306-18.826-11.912-19.022 0 0 .962 2.462 3.232 5.057 5.48 6.263 15.865 8.441 24.311 6.669 11.99-2.515 18.656-11.707 21.006-16.398.067-.13-3.102-3.72-8.042-7.531 0 0-4.419-4.515-7.712-4.994-3.526-.513-4.15.89-4.15.89-2.865-.587-9.822-.733-12.854.183a17.233 17.233 0 00-2.203-.806c-2.013-.543-4.81-.192-6.464 1.392-1.028.985-1.689 1.686-2.35 3.005 0 0-2.534.953-4.884 4.36z" fill="#85D0FF"/><path d="M40.38 56.36c4.112 5.685 7.93 11.079 14.686 13.266 3.244 1.073 6.609.54 9.875.336.763-4.665 1.469-7.56 1.8-9.828-10.452 1.217-21.806-.996-28.042-9.592-.4-.557.63 4.3 1.68 5.818z" fill="#fff"/><path d="M48.952 36.86c-.86-.146-4.398 1.673-6.197 3.456-3.494 3.464-2.316 7.316-1.953 8.188.973 2.346 4.014 6.051 11.13 7.117 6.041.904 8.841-.763 9.194-.88 6.147-2.052 6.391-8.283 6.391-8.283.835-1.186 2.07-3.596 2.07-3.596s-3.424.072-6.17-1.26c-3.975-1.926-8-3.666-14.465-4.742zM35.097 44.8c-.157-1.08-3.245 1.703-3.418 1.87-3.828 3.7-5.648 12.632-5.516 12.563 4.186-2.014 7.302-1.16 7.302-1.16-.78-5.773 1.794-12.161 1.632-13.273zm-.429 7.537c-.293.94-.514 3.2.037 5.737.774 3.564 2.754 6.826 2.754 6.826.166-.233 1.115-1.37 1.115-1.37.735-.786 2.082.531 1.763.77-1.876 1.434-7.189 7.743-10.136 14.148-.125.271 2.731-2.38 4.398-3.203 3.812-1.871 6.746-3.044 12.406-3.142 1.644-.027 2.826.227 3.124.681 0 0-.605.82-.339 1.142.881 1.075 8.618 2.284 8.618 2.284 2.418 4.38 6.886 4.8 6.886 4.8-.588-.74-1.496-3.748-.557-3.938 2.782-.57 8.358-.031 8.946.146 6.576 1.997 10.366 3.7 9.453 3.157-.105-.061-3.037-2.931-3.477-4.152 0 0-7.401.8-18.87-1.815-3.093-.705-10.65-2.994-11.835-4.519-4.04-5.203-7.158-7.264-9.128-7.787-3.248-.86-5.158-9.765-5.158-9.765zm31.976 16.416c1.186.183 7.075-.88 8.2-3.052 1.656-3.2 3.04-7.733 3.165-7.486.294.573-.949 8.502-1.952 9.623-2.057 2.285-5.674 4.87-7.75 3.59-.961-.595-2.34-2.78-1.663-2.675z" fill="#50B4F2"/><path d="M39.902 54.486c7.136 12.253 22.344 11.952 25.647 9.818.252-.164.752-4.364.752-4.364-.364-.293-12.127 1.878-19.034-1.905-6.094-3.337-7.717-7.634-8.656-7.043 0 0 .704 2.48 1.291 3.494z" fill="#E8E8E8"/><path d="M50.18 37.811c-3.113.486-6.514 3.225-7.052 7.33-.23 1.748-.098 4.608 1.126 5.033.161.056 2.937 2.698 6.642 3.737 2.512.703 7.573.258 8.097.074 3.421-1.208 5.459-3.811 5.876-4.544.679-1.186 2.057-4.104.783-5.815-1.274-1.71-14.389-5.983-15.473-5.815z" fill="#fff"/><path d="M52.382 38.105c-3.112.485-6.71 2.986-7.565 7.036-1.084 5.13 3.132 7.856 5.423 8.258 3.984.696 6.61-.218 7.143-.403 3.42-1.208 5.306-4.147 5.729-4.874.678-1.186 2.056-4.104.783-5.815-1.274-1.71-10.429-4.37-11.513-4.202z" fill="#1D1D3D"/><path d="M50.861 45.629c1.354 0 2.452-1.027 2.452-2.293 0-1.266-1.098-2.292-2.452-2.292-1.354 0-2.452 1.026-2.452 2.292 0 1.266 1.098 2.293 2.452 2.293z" fill="#fff"/><path d="M85.805 42.567c-.092-.137-9.082-7.929-11.704-9.675-2.39-1.59-4.88-1.791-5.754-1.721-1.291.111-.962.689-2.477.916-1.298.194-.78.233-2.697 0-1.367-.167-4.063-.88-4.99-.66-3.896.917-8.712.14-10.597.514-.863.17-2.933.586-3.788 2.198-.42.795-1.508 2.26-1.165 2.468.102.061 2.871-2.243 4.675-2.654 2.727-.62 6.246.333 6.246.333 7.895 2.72 13.212 4.545 12.993 4.105-.48-.96-9.125-3.886-9.06-4.325.031-.2.419-.314 1.894-.513 4.59-.623 9.652.22 11.072.463.229.04-2.561-.944-2.477-1.27.059-.207.99-.146 1.682-.02 1.279.238 1.703.4 3.059.937 1.668.661 7.734 6.18 10.207 9.09-.134.01-1.118-.124-1.263-.114-3.033.208-4.753 1.487-7.307 3.21-4.124 2.785-3.652 10.78-21.78 13.046-1.527.192 1.55.97 5.138 1.195 12.505.784 18.283-4.544 24.401-10.408.93-.893 3.268-3.425 3.933-5.962a1.445 1.445 0 00-.241-1.153zM36.981 40.28c-.473-.424-2.01.566-2.938 1.173a22.665 22.665 0 00-5.508 5.057c-3.116 4.25-3.916 8.544-4.334 10.92-.7 3.997.106 6.18.276 6.193.244.016-.484-2.639 1.68-8.758 1.548-4.379 5.739-9.235 9.87-11.36.545-.28 1.513-2.727.954-3.225zM53.14 69.737c-.168.38 3.573 1.898 4.885 2.638 1.478.84 5.124 2.367 9.717 3.037 5.635.822 6.882.522 8.351-1.466.11-.146 5.435-6.53 6.243-7.439.188-.21-6.78 6.353-7.528 6.67-1.46.618-2.428.765-3.893.22-2.203-.823-2.888-3.653-4.745-3.811-.69-.06-1.043.206-2.243.623-.844.293-2.955.134-5.755-.1-4.359-.355-4.85-.783-5.031-.372zm12.779-3.879c1.125.505 6.38.012 7.603-.958 1.616-1.281 4.486-6.684 4.486-6.684s-1.377 1.124-2.613 2.366c-2.926 2.94-2.672 3.026-3.232 3.298-2.435 1.172-5.7-.615-5.7-.615l-.544 2.593z" fill="#DEFFFD"/><path d="M82.213 75.323s-1.253-.267-1.877-.475c.119-.314 1.185-1.124 1.185-1.124-.135-1.003-.342-1.943-.173-2.967.28-1.692 1.871-4.104 3.045-5.339l-2.756.653c-1.677 1.21-4.004 3.098-8.022 7.182-.147.147-1.222-.216-2.241-.655 2.078-1.333 5.212-3.698 5.419-4.332.322-1.076.585-2.17.788-3.274.343-1.728 1.763-8.538 1.763-8.538-.672.17-7.05 6.036-7.253 6.156-.666.403-3.873.742-5.631-.377-.026.286-.348 1.972-.348 1.972 5.288.919 6.826.262 7.164.09l-1.515-.244c1.872-.485 5.52-4.9 6.035-5.306.068 1.593-1.603 8.523-1.698 8.69-.294.513-4.887 2.724-7.222 3.632a13.133 13.133 0 01-2.52-3.15l-.06-.029s-2.658 1.333-3.536 1.563c-3.135.82-6.49.404-9.392-.941-10.547-4.892-14.102-16.254-14.282-16.655 1.616 2.292 4.227 4.829 6.61 6.215 4.18 2.435 9.125 3.51 13.94 3.485a27.938 27.938 0 0013.843-3.72c3.584-2.064 6.858-4.983 9.665-8.01 1.873-2.015 3.783-5.24 3.563-6.779-.147-1.068-4.627-4.818-7.602-7.127-.53-.411-1.137-1.062-1.616-1.487a28.43 28.43 0 00-1.717-1.426c-1.834-1.381-3.823-2.596-6.164-2.714-.846-.042-1.773.003-2.531.427-.264.146-.44.459-.667.586-.147.085.047.015-.204-.066a3.274 3.274 0 00-.55-.09 24.084 24.084 0 00-1.366-.157 46.059 46.059 0 00-3.274-.17c-2.136-.036-4.325 0-6.428.41-.284.056-.735.262-1.005.23-.411-.048-.9-.377-1.294-.516a8.168 8.168 0 00-3.526-.487c-2.394.217-4.292 1.613-5.619 3.57-.197.293-.368.826-.603 1.046a2.3 2.3 0 01-.441.208 10.48 10.48 0 00-1.801 1.227 14.55 14.55 0 00-2.371 2.554c-3.733.82-7.218 3.517-9.447 6.541-2.566 3.488-3.94 7.54-4.554 11.775-.395 2.722-.637 6.243-.465 8.991.013.208 3.525-5.986 10.544-4.397a15.987 15.987 0 001.74 4c-7.825 6.631-7.64 16.927-7.632 16.984 5.02-4.085 11.296-7.558 17.456-8.292 3.656 1.92 7.685 3.185 11.712 3.908l.158.028c4.196 3.757 8.792 4.56 10.577 3.778.094-.04-2.434-1.999-2.239-3.176h.184c1.557-.073 3.111-.245 4.657-.44 1.254-.16 2.676.294 3.882.613 5.255 1.368 10.93 3.352 15.496 6.28.143.083-6.265-6.956-7.784-10.334zm3.662 7.057c-2.566-1.385-5.18-2.264-7.89-3.248-1.564-.57-4.274-1.574-6.282-1.699-1.1-.069-4.882.075-6.52.118-.498 3.148 1.46 4.21 1.46 4.21-5.63-.055-8.52-3.907-8.763-4.725-3.29-.525-6.625-1.407-9.108-2.546-1.37-.838.893-1.612.9-1.612-7.444-.362-14.836 2.676-19.94 8.047 1.46-2.468 4.25-5.832 8.99-7.396 0 0-3.82.244-8.537 4.731 1.382-5.41 9.255-15.58 8.871-15.29-.941.713-.92.623-1.748 1.453-3.055-1.8-3.926-8.501-4.044-9.2-.015.917.01 1.802.066 2.675.052.813.15 1.622.294 2.424-3.536-.138-6.67-.123-8.931 2.578.146-5.032.639-8.58 2.938-13.133 2.046-4.065 6.05-7.345 8.907-8.486-.415.755-.79 1.53-1.125 2.324-3.378 1.967-6.914 6.237-7.743 10.338 2.123-5.161 5.246-7.672 7.228-8.845 0 0-.283 2.085-.202 1.853.526-1.51 1.44-3.48 3.051-5.913 1.145-1.731 2.708-3.304 4.601-4.227.09-.031.177-.07.259-.119.19-.155.326-.586.47-.812.178-.289.375-.567.587-.831.773-.951 1.697-1.878 2.834-2.375.13-.057.265-.11.398-.158.551-.17 1.582-.21 2.135-.22 2.334-.042 4.539 1.061 6.633 1.94a290.344 290.344 0 0010.799 4.354c.633.242-6.538-4.195-10.577-5.913a34.763 34.763 0 013.379-.212 48.589 48.589 0 013.997.063c3.273.255 6.349 1.423 7.133 1.688.33.112-1.078-.866-3.533-1.715.082-.061.168-.117.258-.165.707-.387 1.589-.44 2.376-.403 2.524.098 4.626 1.44 6.577 2.968.54.422 1.05.88 1.561 1.337.23.205 8.08 6.596 8.155 7.153.055.45-.725 1.953-1.121 2.492a44.26 44.26 0 01-2.894 3.498c-2.672 2.932-5.767 5.503-9.285 7.354-7.786 4.096-17.71 4.311-25.602.339-3.336-1.68-6.378-4.368-8.195-7.69a3.7 3.7 0 01-.44.81c.37 1.999.916 3.96 1.63 5.864 1.16 3.043 4.605 10.762 16.974 16.184 6.757 2.965 13.82 3.862 13.176 3.707-3.434-.831-7.74-1.374-13.347-5.424 4.147.674 6.023.557 8.325-.347a7.1 7.1 0 01.996-.323s3.548 4.562 7.367 5.002c0 0 .778-.497.955-.688a70.52 70.52 0 011.29-1.36 72.856 72.856 0 013.875-3.712c.805-.712 1.616-1.429 2.497-2.06l.037-.027c-1.616 2.199-2.35 4.489-2.016 6.743 0 0-1.054 1.013-1.087 1.366 0 0 1.58.806 2.033.951.538.864 2.19 4.033 4.921 6.32l-.003-.01z" fill="#1D1D3D"/><path d="M37.948 48.138c.009 0 .015.03.018.078-.036-.101-.018-.078-.018-.078zM64.36 67.766c-.019-.1.028.177 0 .025v-.025zM83.877 43.69l.182-.307c-3.59-.906-7.67.383-10.158 3.106-.157.172 3.253-3.209 9.976-2.798zm-1.37 31.187c.011-.008.016-.017.013-.024a.038.038 0 00-.013.024zm.188.549v.028-.037c-.008-.026-.019-.04 0 .037a.033.033 0 000-.028zM69.587 42.77c-5.974-2.729-15.186-6.097-17.235-6.472-1.983-.362-5.037.121-7.051 2.198 0 0-2.12 1.514-3.026 4.642-1.095 3.792 1.696 7.453 1.831 7.533 1.919 2.224 4.313 3.4 7.198 4.046 3.379.76 7.295.733 10.395-1.098.064-.038 5.532-3.036 4.952-9.065.49.257 2.936-1.784 2.936-1.784zm-8.244 9.55a.263.263 0 00-.117.035c-2.956 1.76-6.481 1.475-9.712.776-3.062-.663-5.621-1.67-7.575-4.236-1.01-1.846-.965-4.383-.09-6.105.971-1.906 3.643-3.665 5.863-4.377.942-.07 1.954-.078 2.73.078 2.05.41 4.062.992 6.015 1.738 3.439 1.32 4.715 1.658 7.271 3.616.388 3.203-1.608 6.65-4.385 8.475zm-24.438-1.733c-.462.218-.158 1.869.23 1.579 1.307-.972 2.03-2.448 2.149-4.056.017-.229-.24-1.32-.275-1.004-.154 1.35-.796 2.867-2.104 3.48z" fill="#1D1D3D"/><path d="M65.113 69.41l1.851-9.951-2.083.694-2.083 9.952 2.315-.694z" fill="#1D1D3D"/></svg>