<svg width="216" height="503" fill="none" xmlns="http://www.w3.org/2000/svg"><g filter="url(#filter0_d)"><path d="M108.004 439s-7.188-6.349-10.398-26.116c-3.21-19.947-1.99-289.301-1.99-289.301l12.343-.495V439h.045z" fill="#E7E7ED"/><path d="M108.004 439s7.189-6.349 10.399-26.116c3.21-19.947 1.99-289.301 1.99-289.301l-12.343-.495V439h-.046z" fill="#FCFCFF"/><path d="M96.566 86.504L120.143 92c1.571-3.115.733-8-.524-10.748L97.037 76c-1.047 2.931-1.467 6.229-.471 10.504z" fill="#50B4F2"/><path d="M96 81.756c0 1.279.206 2.674.567 4.186l.257.058c1.236-4.128 2.318-5.988 5.871-6.28 3.142-.232 13.339.35 17.305 3.315a14.594 14.594 0 00-.721-2.035l-22.197-5A15.703 15.703 0 0096 81.756z" fill="#0993E8"/><path d="M95.606 95.847L121.089 101c1.681-2.92.759-7.5-.542-10.076L96.148 86c-1.138 2.748-1.626 5.84-.542 9.847z" fill="#50B4F2"/><path d="M95.004 91.756c0 1.279.214 2.674.588 4.186l.268.058c1.337-4.128 2.514-5.988 6.365-6.28 3.423-.232 14.496.35 18.775 3.315-.214-.756-.481-1.454-.802-2.035l-24.07-5c-.696 1.744-1.177 3.605-1.124 5.756z" fill="#0993E8"/><path d="M96.338 96.03l24.523 4.782c1.243-2.034 1.081-5.002.379-7.42-.162 1.099.108 3.957-2.323 4.892-4.321 1.649-17.663-2.474-20.634-2.474-.864.055-1.459.11-1.945.22z" fill="#27A5F2"/><path d="M94.875 105.255l27.003 5.099c1.767-2.89.829-7.422-.607-9.971l-25.844-4.872c-1.215 2.776-1.712 5.835-.552 9.744z" fill="#50B4F2"/><path d="M94.222 101.003c0 1.221.218 2.552.654 3.995l.272.055c1.416-3.939 2.669-5.714 6.754-5.991 3.595-.222 15.359.333 19.88 3.162a9.089 9.089 0 00-.871-1.942l-25.49-4.77c-.763 1.664-1.253 3.439-1.199 5.491z" fill="#0993E8"/><path d="M95.278 105.571l26.584 4.783c1.352-2.034 1.127-5.003.394-7.422-.169 1.1.113 3.958-2.534 4.893-4.731 1.649-19.15-2.474-22.416-2.474-.845 0-1.465.11-2.028.22z" fill="#27A5F2"/><path d="M93.722 114.847L122.97 120c1.9-2.92.864-7.5-.633-10.076L94.356 105c-1.382 2.748-1.9 5.84-.634 9.847z" fill="#50B4F2"/><path d="M93.158 110.545c0 1.22.226 2.551.678 3.994l.283.055c1.527-3.938 2.884-5.713 7.294-5.991 3.901-.222 16.51.333 21.429 3.162-.283-.721-.565-1.387-.905-1.941l-27.479-4.771c-.791 1.609-1.3 3.439-1.3 5.492z" fill="#0993E8"/><path d="M95 114.844L122.964 120c1.427-2.193 1.199-5.393.4-8-.171 1.185.114 4.267-2.625 5.274-4.965 1.778-20.146-2.667-23.57-2.667-.856.06-1.541.119-2.169.237zm1-28.355L120.105 91c1.219-1.918 1.053-4.719.333-7-.167 1.037.11 3.733-2.272 4.615-4.267 1.555-17.345-2.334-20.282-2.334a8.88 8.88 0 00-1.884.208z" fill="#27A5F2"/><path d="M96.576 76.847L120.164 82c1.532-2.92.712-7.5-.493-10.076L97.068 67c-1.04 2.748-1.532 5.84-.492 9.847z" fill="#50B4F2"/><path d="M97.399 76.947l22.49 4.782c1.136-2.033.973-5.002.325-7.42-.163 1.099.108 3.957-2.109 4.892-4.001 1.649-16.219-2.474-18.976-2.474-.703.055-1.244.11-1.73.22z" fill="#27A5F2"/><path d="M96.004 72.18c0 1.151.162 2.407.54 3.768l.216.052c1.24-3.715 2.318-5.39 5.877-5.651 3.127-.21 13.373.314 17.363 2.982a11.907 11.907 0 00-.755-1.831L96.975 67c-.593 1.57-1.024 3.244-.97 5.18z" fill="#0993E8"/><path d="M97.399 76.947l22.49 4.782c1.136-2.033.973-5.002.325-7.42-.163 1.099.108 3.957-2.109 4.892-4.001 1.649-16.219-2.474-18.976-2.474-.703.055-1.244.11-1.73.22z" fill="#27A5F2"/><path d="M97.496 67.504L119.5 72c1.428-3.115.364-7-.746-9.748L97.972 57c-.952 2.931-1.375 6.229-.476 10.504z" fill="#50B4F2"/><path d="M97 62.756c0 1.279.155 2.674.518 4.186l.207.058c1.139-4.128 2.122-5.988 5.383-6.28 2.899-.232 12.268.35 15.892 3.315-.207-.756-.414-1.454-.673-2.035l-20.343-5c-.57 1.686-.984 3.605-.984 5.756z" fill="#0993E8"/><path d="M97 67.489L119.181 72c1.118-1.918.95-4.719.336-7-.168 1.037.111 3.733-2.124 4.615-3.911 1.555-15.979-2.334-18.661-2.334-.726.052-1.285.104-1.732.208z" fill="#27A5F2"/><path d="M97.497 57.847L118.5 62c1.37-2.92.388-6.5-.718-9.076L97.918 48c-.895 2.748-1.317 5.84-.421 9.847z" fill="#50B4F2"/><path d="M97 53.605c0 1.023.154 2.14.515 3.349l.206.046c1.08-3.302 2.058-4.79 5.147-5.023 2.728-.186 11.683.279 15.132 2.65-.206-.604-.412-1.162-.669-1.627l-19.404-4C97.36 50.395 97 51.884 97 53.605z" fill="#0993E8"/><path d="M98 57.844L118.5 62c1.013-2.193.619-4.393.033-7-.16 1.185.106 4.267-1.92 5.274-3.573 1.778-14.613-2.667-17.066-2.667-.587 0-1.12.119-1.547.237z" fill="#27A5F2"/><path d="M97.881 48.371l20.021 4.734c1.288-2.682.59-6.89-.43-9.258l-19.161-4.523c-.913 2.525-1.288 5.365-.43 9.047z" fill="#50B4F2"/><path d="M98 49l19.878 4.105c.971-2.033.864-5.002.27-7.42-.108 1.099.108 3.957-1.834 4.892-3.452 1.649-13.971-2.474-16.345-2.474-.593.055-2.428.677-1.969.897z" fill="#27A5F2"/><path d="M97 44.756c0 1.279.164 2.674.49 4.186l.22.058c1.09-4.128 2.072-5.988 5.126-6.28 2.728-.232 11.728.35 15.164 3.315-.164-.756-.382-1.454-.655-2.035l-19.472-5c-.491 1.744-.873 3.605-.873 5.756z" fill="#0993E8"/><path d="M40.152 123.542c.055 4.121 1.713 8.059 5.028 11.814 16.964-18.591 44.482-4.579 62.827 9.983 18.346-14.654 45.919-28.666 62.828-9.983 6.631-7.51 6.686-15.569.165-25.002-21.826 13.554-40.89 7.235-62.993 0-22.102 7.235-41.221 13.554-62.993 0-3.26 4.67-4.918 9.066-4.862 13.188z" fill="#F5AB3A"/><path d="M107.966 145.339c18.342-14.654 45.909-28.666 62.87-9.983 6.629-7.51 6.684-15.569.165-25.002-16.131 9.982-30.716 9.158-46.185 5.128-5.524 6.961-16.463 15.478-36.959 16.943 7.182 3.481 14.143 8.151 20.109 12.914z" fill="#FECE86"/><path d="M107.89 117.774v7.388l-5.241-5.219 5.241-2.169z" fill="url(#paint0_linear)"/><path d="M107.89 125.162l5.24-5.219-5.24-2.169v7.388z" fill="#1EB699"/><path d="M100.472 125.162h7.418l-5.241-5.219-2.177 5.219z" fill="#15D6B1"/><path d="M113.13 119.943l-5.24 5.219h7.418l-2.178-5.219z" fill="#1EB699"/><path d="M107.89 132.617v-7.456l-5.241 5.219 5.241 2.237z" fill="#DEFFFD"/><path d="M107.89 125.161l5.24 5.287-5.24 2.169v-7.456z" fill="url(#paint1_linear)"/><path d="M100.472 125.162h7.418l-5.241 5.218-2.177-5.218z" fill="#DEFFFD"/><path d="M113.13 130.448l-5.24-5.287h7.418l-2.178 5.287z" fill="#15D6B1"/><path d="M107.821 125.229s-1.157 1.152-2.586 2.643l-2.586 2.576s1.157-1.152 2.586-2.643c1.361-1.424 2.586-2.576 2.586-2.576zm.068-.067a66098.54 66098.54 0 005.173 5.151l-2.587-2.576c-1.429-1.355-2.586-2.575-2.586-2.575z" fill="#FCFCFC"/><path d="M90.127 120.214v3.931l-2.722-2.779 2.722-1.152z" fill="url(#paint2_linear)"/><path d="M90.127 124.145l2.722-2.779-2.722-1.152v3.931z" fill="#1EB699"/><path d="M86.248 124.145h3.88l-2.723-2.779-1.157 2.779z" fill="#15D6B1"/><path d="M92.85 121.366l-2.722 2.779h3.879l-1.157-2.779z" fill="#1EB699"/><path d="M90.127 128.008v-3.863l-2.722 2.711 2.722 1.152z" fill="#DEFFFD"/><path d="M90.127 124.145l2.722 2.711-2.722 1.152v-3.863z" fill="url(#paint3_linear)"/><path d="M86.248 124.144h3.88l-2.723 2.711-1.157-2.711z" fill="#DEFFFD"/><path d="M92.85 126.855l-2.722-2.711h3.879l-1.157 2.711z" fill="#15D6B1"/><path d="M90.06 124.144l-1.361 1.356-1.361 1.355 1.36-1.355 1.362-1.356zm.067 0a7031.077 7031.077 0 002.722 2.711l-1.36-1.355-1.362-1.356z" fill="#FCFCFC"/><path d="M125.652 120.214v3.931l2.722-2.779-2.722-1.152z" fill="url(#paint4_linear)"/><path d="M125.652 124.145l-2.722-2.779 2.722-1.152v3.931z" fill="#1EB699"/><path d="M129.531 124.145h-3.879l2.723-2.779 1.156 2.779z" fill="#15D6B1"/><path d="M122.93 121.366l2.722 2.779h-3.879l1.157-2.779z" fill="#1EB699"/><path d="M125.652 128.008v-3.863l2.722 2.711-2.722 1.152z" fill="#DEFFFD"/><path d="M125.652 124.145l-2.722 2.711 2.722 1.152v-3.863z" fill="url(#paint5_linear)"/><path d="M129.531 124.144h-3.879l2.723 2.711 1.156-2.711z" fill="#DEFFFD"/><path d="M122.93 126.855l2.722-2.711h-3.879l1.157 2.711z" fill="#15D6B1"/><path d="M125.721 124.144a5802.39 5802.39 0 002.722 2.711l-1.361-1.355-1.361-1.356zm-.069 0l-1.361 1.356-1.361 1.355 1.361-1.355 1.361-1.356z" fill="#FCFCFC"/><path d="M49.51 119.108l.08 3.349-2.402-2.393 2.322-.956z" fill="url(#paint6_linear)"/><path d="M49.59 122.457l2.322-2.393-2.402-.956.08 3.349z" fill="#1EB699"/><path d="M46.227 122.457h3.363l-2.402-2.393-.961 2.393z" fill="#15D6B1"/><path d="M51.911 120.064l-2.322 2.393h3.283l-.96-2.393z" fill="#1EB699"/><path d="M49.51 125.805l.08-3.349-2.402 2.313 2.322 1.036z" fill="#DEFFFD"/><path d="M49.59 122.456l2.322 2.313-2.402 1.036.08-3.349z" fill="url(#paint7_linear)"/><path d="M46.227 122.457h3.363l-2.402 2.312-.961-2.312z" fill="#DEFFFD"/><path d="M51.911 124.769l-2.322-2.312h3.283l-.96 2.312z" fill="#15D6B1"/><path d="M49.59 122.456v1.675c-.08-.957-.08-1.675 0-1.675zm-.08.001s-.481.558-1.122 1.196c-.64.638-1.2 1.196-1.2 1.116 0 0 .48-.558 1.12-1.196.64-.638 1.201-1.116 1.201-1.116zm.08 0a23.736 23.736 0 002.322 2.312s-.56-.478-1.201-1.116a30.03 30.03 0 00-1.121-1.196z" fill="#FCFCFC"/><path d="M166.424 119.174v3.282l-2.276-2.344 2.276-.938z" fill="url(#paint8_linear)"/><path d="M166.424 122.456l2.354-2.344-2.354-.938v3.282z" fill="#1EB699"/><path d="M163.128 122.456h3.296l-2.276-2.344-1.02 2.344z" fill="#15D6B1"/><path d="M168.778 120.112l-2.354 2.344h3.295l-.941-2.344z" fill="#1EB699"/><path d="M166.424 125.738v-3.282l-2.276 2.266 2.276 1.016z" fill="#DEFFFD"/><path d="M166.424 122.456l2.354 2.266-2.354 1.016v-3.282z" fill="url(#paint9_linear)"/><path d="M163.128 122.457h3.296l-2.276 2.266-1.02-2.266z" fill="#DEFFFD"/><path d="M168.778 124.723l-2.354-2.266h3.295l-.941 2.266z" fill="#15D6B1"/><path d="M166.424 122.457s-.471.547-1.099 1.172c-.627.625-1.177 1.172-1.177 1.094 0 0 .471-.547 1.099-1.172.628-.626 1.177-1.094 1.177-1.094z" fill="#FCFCFC"/><path d="M166.423 122.457a23.098 23.098 0 002.276 2.266s-.549-.469-1.177-1.094c-.549-.703-1.099-1.172-1.099-1.172z" fill="#FCFCFC"/><path d="M98.106 27.654L108 16l9.895 11.654c-9.895 1.97-9.895 2.134-19.79 0z" fill="#FECE86"/><path d="M108 25.895c10.925 0 19.79 4.436 19.79 9.895s-8.865 9.895-19.79 9.895c-10.924 0-19.79-4.436-19.79-9.895 0-5.46 8.866-9.895 19.79-9.895z" fill="#F5AB3A"/><path d="M102 36a6 6 0 1112.001.001A6 6 0 01102 36z" fill="#CACACA"/><path d="M108.724 42c2.914 0 5.276-2.521 5.276-5.63 0-.588-.079-1.177-.236-1.681-.945-1.597-2.599-2.689-4.488-2.689-2.914 0-5.276 2.521-5.276 5.63 0 .588.079 1.177.236 1.68.945 1.597 2.599 2.69 4.488 2.69z" fill="#E1E1E1"/><path d="M108 42.386a6.593 6.593 0 006.596-6.597A6.593 6.593 0 00108 29.193a6.594 6.594 0 00-6.597 6.596A6.594 6.594 0 00108 42.386zm-.087-.434h-.521c-1.909-.174-.173-.781-1.822-1.65-1.649-.867-1.215.869-2.344-.607-1.215-1.475.434-.607-.087-2.43-.52-1.823-1.475-.26-1.215-2.17.174-1.91.781-.173 1.649-1.823.868-1.649-.868-1.215.608-2.343 1.475-1.215.607.434 2.43-.087 1.823-.52.261-1.389 2.17-1.215 1.91.174.174.781 1.823 1.65 1.649.867 1.215-.869 2.343.607 1.215 1.475-.434.607.087 2.43.521 1.823 1.476.26 1.215 2.083-.173 1.91-.781.174-1.649 1.823s.868 1.215-.607 2.343c-1.476 1.215-.608-.434-2.431.087-1.649.608-.694 1.302-1.649 1.302z" fill="#FECE86"/><path d="M116 36c0-2.787 2.212-5 5-5 2.692 0 5 2.213 5 5 0 2.705-2.212 5-5 5-2.788-.082-5-2.295-5-5z" fill="#CACACA"/><path d="M121.224 41c2.572 0 4.776-2 4.776-4.519 0-.444-.092-.888-.184-1.333a4.808 4.808 0 00-4.04-2.148c-2.572 0-4.776 2-4.776 4.519 0 .444.092.888.184 1.333a4.807 4.807 0 004.04 2.148z" fill="#E1E1E1"/><path d="M120.958 41c2.735 0 5.042-2.246 5.042-5s-2.222-5-5.042-5c-2.734 0-4.956 2.246-4.956 5-.085 2.754 2.137 5 4.956 5zm-.085-.29h-.427c-1.453-.145-.086-.58-1.367-1.232-1.282-.652-.855.652-1.795-.507-.94-1.087.342-.435-.085-1.812-.428-1.376-1.111-.217-.94-1.594.171-1.45.598-.145 1.281-1.377.684-1.232-.598-.942.513-1.811 1.111-.87.513.29 1.88-.073 1.367-.434.171-1.087 1.624-.942 1.452.145.085.58 1.367 1.232s.854-.652 1.794.507c.94 1.087-.342.508.086 1.885.427 1.376 1.111.144.94 1.594-.171 1.449-.598.145-1.282 1.377-.684 1.231.598.941-.513 1.811s-.512-.29-1.88.073c-1.196.29-.512.797-1.196.87z" fill="#FECE86"/><path d="M100 36c0-2.787-2.212-5-5-5-2.692 0-5 2.213-5 5 0 2.705 2.212 5 5 5 2.788-.082 5-2.295 5-5z" fill="#CACACA"/><path d="M94.775 41C92.206 41 90 39 90 36.481c0-.444.092-.888.184-1.333A4.808 4.808 0 0194.224 33C96.797 33 99 35 99 37.519c0 .444-.092.888-.184 1.333A4.808 4.808 0 0194.776 41z" fill="#E1E1E1"/><path d="M95.043 41C92.308 41 90 38.754 90 36s2.222-5 5.043-5c2.735 0 4.957 2.246 4.957 5s-2.222 5-4.957 5zm.085-.29h.428c1.453-.145.085-.58 1.367-1.232s.855.652 1.795-.507c.94-1.087-.342-.435.085-1.812.428-1.376 1.112-.217.94-1.594-.17-1.45-.598-.145-1.281-1.377-.684-1.232.598-.942-.513-1.811-1.111-.87-.513.29-1.88-.073-1.368-.434-.172-1.087-1.625-.942-1.453.145-.085.58-1.367 1.232s-.855-.652-1.795.507c-.94 1.087.342.508-.085 1.885-.428 1.376-1.112.144-.94 1.594.17 1.449.598.145 1.281 1.377.684 1.231-.598.941.513 1.811s.513-.29 1.88.073c1.197.29.428.797 1.197.87z" fill="#FECE86"/><path d="M114.596 25.895L108 16l2.984 9.36c1.257-.09 2.434.178 3.612.535z" fill="#F5AB3A"/><path d="M101.404 25.895L108 16l-2.984 9.36c-1.335-.178-2.513.09-3.612.535z" fill="#FECE86"/></g><defs><linearGradient id="paint0_linear" x1="101.447" y1="116.445" x2="110.434" y2="122.107" gradientUnits="userSpaceOnUse"><stop stop-color="#8CD3FF"/><stop offset="1" stop-color="#77F8C1"/></linearGradient><linearGradient id="paint1_linear" x1="106.687" y1="123.819" x2="115.721" y2="129.459" gradientUnits="userSpaceOnUse"><stop stop-color="#8CD3FF"/><stop offset="1" stop-color="#77F8C1"/></linearGradient><linearGradient id="paint2_linear" x1="86.781" y1="119.506" x2="91.512" y2="122.416" gradientUnits="userSpaceOnUse"><stop stop-color="#8CD3FF"/><stop offset="1" stop-color="#77F8C1"/></linearGradient><linearGradient id="paint3_linear" x1="89.502" y1="123.449" x2="94.189" y2="126.382" gradientUnits="userSpaceOnUse"><stop stop-color="#8CD3FF"/><stop offset="1" stop-color="#77F8C1"/></linearGradient><linearGradient id="paint4_linear" x1="125.027" y1="119.506" x2="129.759" y2="122.416" gradientUnits="userSpaceOnUse"><stop stop-color="#8CD3FF"/><stop offset="1" stop-color="#77F8C1"/></linearGradient><linearGradient id="paint5_linear" x1="122.305" y1="123.449" x2="126.991" y2="126.382" gradientUnits="userSpaceOnUse"><stop stop-color="#8CD3FF"/><stop offset="1" stop-color="#77F8C1"/></linearGradient><linearGradient id="paint6_linear" x1="46.636" y1="118.505" x2="50.73" y2="121.113" gradientUnits="userSpaceOnUse"><stop stop-color="#8CD3FF"/><stop offset="1" stop-color="#77F8C1"/></linearGradient><linearGradient id="paint7_linear" x1="48.958" y1="121.853" x2="53.052" y2="124.461" gradientUnits="userSpaceOnUse"><stop stop-color="#8CD3FF"/><stop offset="1" stop-color="#77F8C1"/></linearGradient><linearGradient id="paint8_linear" x1="163.626" y1="118.583" x2="167.579" y2="121.018" gradientUnits="userSpaceOnUse"><stop stop-color="#8CD3FF"/><stop offset="1" stop-color="#77F8C1"/></linearGradient><linearGradient id="paint9_linear" x1="165.883" y1="121.865" x2="169.895" y2="124.421" gradientUnits="userSpaceOnUse"><stop stop-color="#8CD3FF"/><stop offset="1" stop-color="#77F8C1"/></linearGradient><filter id="filter0_d" x=".15" y="0" width="215.699" height="503" filterUnits="userSpaceOnUse" color-interpolation-filters="sRGB"><feFlood flood-opacity="0" result="BackgroundImageFix"/><feColorMatrix in="SourceAlpha" values="0 0 0 0 0 0 0 0 0 0 0 0 0 0 0 0 0 0 127 0"/><feOffset dy="24"/><feGaussianBlur stdDeviation="20"/><feColorMatrix values="0 0 0 0 0.304392 0 0 0 0 0.623183 0 0 0 0 0.820833 0 0 0 0.09 0"/><feBlend in2="BackgroundImageFix" result="effect1_dropShadow"/><feBlend in="SourceGraphic" in2="effect1_dropShadow" result="shape"/></filter></defs></svg>