<svg width="112" height="112" fill="none" xmlns="http://www.w3.org/2000/svg"><circle cx="56" cy="56" r="56" fill="#C7F1FC"/><path d="M15.305 71.26a3.773 3.773 0 100-7.547 3.773 3.773 0 000 7.546z" fill="#DEFFFD"/><path opacity=".35" d="M16.636 69.927a3.773 3.773 0 01-3.773-3.772c0-.699.193-1.35.524-1.912a3.764 3.764 0 00-1.856 3.243 3.773 3.773 0 003.773 3.773 3.764 3.764 0 003.243-1.856 3.75 3.75 0 01-1.911.524z" fill="#85D0FF"/><path d="M7.98 76.124a2.663 2.663 0 100-5.327 2.663 2.663 0 000 5.327z" fill="#DEFFFD"/><path opacity=".35" d="M9.09 75.013a2.663 2.663 0 01-2.353-3.907 2.662 2.662 0 103.598 3.598 2.65 2.65 0 01-1.244.31z" fill="#85D0FF"/><path d="M7.463 66.599a.666.666 0 100-1.332.666.666 0 000 1.332z" fill="#DEFFFD"/><path opacity=".35" d="M7.905 66.377a.888.888 0 01-.888-.888c0-.018.004-.035.006-.053a.661.661 0 00-.228.497.666.666 0 001.164.439c-.019 0-.036.005-.054.005z" fill="#85D0FF"/><path d="M12.865 80.373a1.775 1.775 0 100-3.55 1.775 1.775 0 000 3.55z" fill="#DEFFFD"/><path opacity=".35" d="M13.528 79.707a1.775 1.775 0 01-1.542-2.652 1.774 1.774 0 00.877 3.318c.661 0 1.237-.363 1.542-.899a1.766 1.766 0 01-.877.233z" fill="#85D0FF"/><path d="M103.507 50.782a5.233 5.233 0 100-10.466 5.233 5.233 0 000 10.466z" fill="#DEFFFD"/><path opacity=".35" d="M105.355 48.935a5.233 5.233 0 01-5.233-5.233 5.2 5.2 0 01.727-2.65 5.22 5.22 0 00-2.574 4.497 5.233 5.233 0 005.233 5.233 5.222 5.222 0 004.498-2.574 5.2 5.2 0 01-2.651.727z" fill="#85D0FF"/><path d="M93.35 57.527a3.694 3.694 0 100-7.387 3.694 3.694 0 000 7.387z" fill="#DEFFFD"/><path opacity=".35" d="M94.888 55.988a3.694 3.694 0 01-3.264-5.42 3.692 3.692 0 001.725 6.96 3.692 3.692 0 003.265-1.969 3.675 3.675 0 01-1.726.43z" fill="#85D0FF"/><path d="M92.63 44.319a.923.923 0 100-1.847.923.923 0 000 1.847z" fill="#DEFFFD"/><path opacity=".35" d="M93.244 44.011a1.23 1.23 0 01-1.231-1.23c0-.026.006-.05.007-.075a.917.917 0 00-.315.69c0 .51.413.923.923.923a.916.916 0 00.69-.315c-.025.001-.049.007-.074.007z" fill="#85D0FF"/><path d="M100.12 63.421a2.462 2.462 0 100-4.924 2.462 2.462 0 000 4.924z" fill="#DEFFFD"/><path opacity=".35" d="M101.043 62.499a2.463 2.463 0 01-2.14-3.679 2.462 2.462 0 103.356 3.356 2.447 2.447 0 01-1.216.323z" fill="#85D0FF"/><path d="M63.166 53.116c3.413 2.368 7.492.814 7.492.814 2.67-2.331 4.117-3.516 6.38-5.773.179-.18-1.93 10.436-1.93 10.436-.483.69-.93 1.085-1.631 1.702-.43.38-5.82 5.034-8.901 3.257-1.335-.776-1.691-2.45-2.077-4.293-.107-.51-.932-7.253.667-6.143zm-8.012 14.876c0 3.33 10.607 5.403 10.607 5.403.14-.373-4.08-2.812-.668-5.18 1.668-1.155-9.938-2.162-9.94-.223zm-20.621-11.14c-5.192 2.369-8.456 17.061-8.456 17.061.323.148 8.753-8.586 17.365-9.265 4.091-.323 5.814.811 6.223.013 1.036-2.015-8.906-10.65-15.132-7.809zm2.892-27.2c-1.187-.496-7.047.827-11.942 9.191-4.779 8.168-3.505 16.14-3.524 17.05 0 0 1.817-5.292 11.609-3.515 7.69 1.391 8.045-20.972 3.857-22.726z" fill="#85D0FF"/><path d="M35.534 30.715c-4.4 6.379-4.99 16.617-3.671 21.206 3.401 11.842 19.826 17.705 31.784 17.32 2.3-.074 5.527-.519 5.527-.519 8.382.926 18.692 7.55 18.692 7.55-7.27-7.105-7.12-9.77-7.12-9.77-.342-.067-2.486-.074-2.226-.814 0 0 .177-.95.593-1.444 0 0 .112-.85.297-2.775.28-2.904 1.929-4.33 1.929-4.33-.18-.191-2.5 1-3.783 2.038-4.191 3.39-5.712 5.697-5.712 5.697a4.156 4.156 0 01-.964-.148 8.232 8.232 0 01-3.56-1.777 15.153 15.153 0 01-2.894-3.478c-.365.037-6.379 5.2-16.75-1.291-7.283-4.557-12.428-19.014-12.03-19.212 0 0 .971 2.487 3.263 5.107 5.535 6.326 16.023 8.525 24.553 6.736 12.109-2.54 18.84-11.824 21.215-16.56.066-.132-3.134-3.758-8.123-7.606 0 0-4.462-4.56-7.788-5.044-3.56-.518-4.191.899-4.191.899-2.893-.593-9.92-.74-12.981.185a17.405 17.405 0 00-2.226-.815c-2.032-.547-4.857-.194-6.527 1.407-1.039.994-1.706 1.702-2.374 3.034 0 0-2.559.963-4.933 4.404z" fill="#85D0FF"/><path d="M38.41 47.15c4.152 5.742 8.009 11.189 14.832 13.397 3.276 1.084 6.674.546 9.973.34.77-4.71 1.483-7.635 1.817-9.926-10.555 1.23-22.022-1.005-28.32-9.687-.403-.563.637 4.343 1.697 5.876z" fill="#fff"/><path d="M47.067 27.457c-.868-.148-4.442 1.689-6.26 3.49-3.527 3.499-2.338 7.389-1.971 8.27.982 2.368 4.053 6.11 11.24 7.187 6.101.913 8.929-.77 9.285-.889 6.208-2.072 6.455-8.365 6.455-8.365.842-1.198 2.09-3.631 2.09-3.631s-3.458.072-6.23-1.273c-4.015-1.945-8.08-3.703-14.61-4.79zm-13.992 8.017c-.159-1.09-3.277 1.72-3.452 1.89-3.866 3.735-5.704 12.757-5.57 12.687 4.227-2.034 7.374-1.171 7.374-1.171-.788-5.831 1.811-12.282 1.648-13.406zm-.433 7.612c-.297.95-.52 3.233.037 5.794.782 3.6 2.781 6.893 2.781 6.893.168-.235 1.126-1.382 1.126-1.382.742-.795 2.102.536 1.78.777-1.894 1.448-7.26 7.82-10.236 14.288-.126.274 2.758-2.404 4.442-3.234 3.85-1.89 6.812-3.075 12.528-3.174 1.66-.027 2.855.23 3.156.688 0 0-.611.828-.343 1.153.89 1.085 8.704 2.307 8.704 2.307 2.442 4.423 6.954 4.848 6.954 4.848-.594-.748-1.51-3.785-.563-3.978 2.81-.574 8.442-.031 9.035.148 6.642 2.016 10.47 3.736 9.547 3.189-.106-.063-3.067-2.96-3.512-4.194 0 0-7.474.808-19.056-1.833-3.124-.712-10.757-3.024-11.953-4.564-4.08-5.255-7.23-7.336-9.219-7.864-3.28-.87-5.208-9.862-5.208-9.862z" fill="#50B4F2"/><path d="M64.933 59.666c1.2.184 7.147-.889 8.283-3.082 1.672-3.232 3.07-7.81 3.196-7.56.296.578-.959 8.585-1.972 9.718-2.077 2.308-5.73 4.919-7.826 3.625-.971-.6-2.365-2.808-1.68-2.701z" fill="#50B4F2"/><path d="M37.928 45.257c7.206 12.375 22.565 12.07 25.9 9.916.255-.166.76-4.408.76-4.408-.368-.296-12.247 1.897-19.222-1.923-6.155-3.37-7.794-7.71-8.742-7.114 0 0 .71 2.505 1.303 3.529z" fill="#E8E8E8"/><path d="M48.305 28.417c-3.143.49-6.578 3.257-7.12 7.402-.233 1.766-.1 4.654 1.136 5.083.163.056 2.967 2.725 6.708 3.775 2.537.71 7.648.26 8.178.074 3.455-1.22 5.512-3.849 5.934-4.589.685-1.197 2.077-4.145.79-5.872-1.286-1.728-14.53-6.043-15.626-5.873z" fill="#fff"/><path d="M50.53 28.713c-3.143.49-6.776 3.016-7.64 7.106-1.095 5.181 3.163 7.934 5.478 8.34 4.023.703 6.675-.22 7.212-.407 3.456-1.22 5.36-4.188 5.786-4.922.686-1.198 2.077-4.145.791-5.872-1.286-1.728-10.532-4.415-11.626-4.244z" fill="#1D1D3D"/><path d="M48.994 36.312c1.367 0 2.476-1.036 2.476-2.315s-1.108-2.315-2.476-2.315c-1.367 0-2.476 1.036-2.476 2.315s1.109 2.315 2.476 2.315z" fill="#fff"/><path d="M84.285 33.22c-.093-.14-9.172-8.008-11.82-9.772-2.414-1.606-4.929-1.809-5.812-1.738-1.303.113-.97.696-2.5.926-1.311.195-.788.235-2.724 0-1.381-.17-4.103-.889-5.039-.667-3.935.926-8.8.141-10.703.518-.87.172-2.962.593-3.825 2.221-.424.803-1.523 2.282-1.177 2.492.103.062 2.9-2.265 4.721-2.68 2.754-.626 6.309.336 6.309.336 7.972 2.747 13.342 4.59 13.122 4.146-.486-.97-9.216-3.925-9.15-4.368.03-.203.422-.317 1.913-.518 4.634-.63 9.747.222 11.18.468.232.04-2.585-.953-2.5-1.282.059-.21.999-.148 1.698-.02 1.291.239 1.72.403 3.09.945 1.684.668 7.81 6.242 10.308 9.18-.135.01-1.13-.125-1.275-.115-3.064.21-4.801 1.502-7.38 3.241-4.165 2.813-3.689 10.888-21.996 13.176-1.542.194 1.565.98 5.189 1.207 12.629.792 18.463-4.59 24.643-10.511.94-.902 3.3-3.459 3.972-6.022a1.457 1.457 0 00-.244-1.163zm-49.307-2.309c-.478-.428-2.03.571-2.967 1.184a22.89 22.89 0 00-5.564 5.107c-3.146 4.293-3.955 8.63-4.376 11.029-.708 4.036.107 6.242.279 6.254.246.016-.49-2.664 1.696-8.845 1.563-4.422 5.796-9.326 9.968-11.472.55-.283 1.528-2.754.964-3.257zm16.319 29.747c-.17.385 3.608 1.917 4.933 2.665 1.492.848 5.174 2.39 9.813 3.067 5.691.83 6.95.527 8.434-1.48.111-.148 5.49-6.595 6.305-7.513.19-.213-6.848 6.416-7.603 6.736-1.475.624-2.452.773-3.931.222-2.226-.83-2.917-3.69-4.792-3.849-.697-.06-1.053.209-2.265.63-.854.295-2.985.135-5.813-.102-4.402-.358-4.897-.79-5.081-.376zm12.905-3.916c1.136.509 6.443.012 7.678-.968 1.632-1.294 4.531-6.75 4.531-6.75s-1.391 1.135-2.639 2.389c-2.955 2.97-2.699 3.056-3.264 3.33-2.46 1.185-5.757-.62-5.757-.62l-.55 2.619z" fill="#DEFFFD"/><path d="M80.658 66.3s-1.266-.269-1.896-.48c.12-.316 1.197-1.135 1.197-1.135-.136-1.012-.346-1.961-.175-2.996.283-1.708 1.89-4.145 3.075-5.391l-2.783.659c-1.694 1.222-4.044 3.13-8.101 7.253-.149.148-1.235-.217-2.264-.661 2.1-1.346 5.264-3.735 5.473-4.375a31.18 31.18 0 00.796-3.307c.346-1.745 1.78-8.623 1.78-8.623-.679.172-7.12 6.096-7.325 6.218-.672.407-3.91.749-5.687-.38-.026.288-.351 1.99-.351 1.99 5.34.928 6.894.265 7.235.092l-1.53-.247c1.89-.49 5.576-4.949 6.095-5.359.068 1.61-1.619 8.608-1.715 8.777-.297.518-4.936 2.75-7.293 3.668a13.263 13.263 0 01-2.546-3.183l-.06-.028s-2.684 1.346-3.572 1.578c-3.166.83-6.554.409-9.484-.95-10.652-4.94-14.242-16.415-14.424-16.82 1.631 2.314 4.27 4.877 6.676 6.277 4.22 2.459 9.215 3.544 14.077 3.519a28.215 28.215 0 0013.98-3.756c3.62-2.086 6.927-5.033 9.763-8.09 1.891-2.035 3.82-5.292 3.597-6.846-.148-1.08-4.673-4.866-7.677-7.197-.536-.416-1.148-1.074-1.632-1.503a28.717 28.717 0 00-1.734-1.44c-1.852-1.395-3.86-2.622-6.225-2.74-.855-.043-1.791.003-2.556.43-.267.148-.446.464-.674.592-.148.086.047.015-.206-.066a3.318 3.318 0 00-.555-.09 23.938 23.938 0 00-1.38-.16 46.497 46.497 0 00-3.307-.172c-2.157-.035-4.367 0-6.492.415-.286.056-.741.265-1.014.232-.416-.049-.91-.38-1.307-.521a8.25 8.25 0 00-3.56-.492c-2.419.22-4.336 1.629-5.675 3.605-.2.296-.373.835-.61 1.057a2.32 2.32 0 01-.445.21c-.648.349-1.258.764-1.819 1.24a14.695 14.695 0 00-2.394 2.578c-3.77.829-7.29 3.553-9.541 6.607-2.592 3.521-3.979 7.614-4.599 11.89-.4 2.75-.644 6.306-.47 9.081.013.21 3.56-6.045 10.649-4.44a16.141 16.141 0 001.756 4.039c-7.901 6.697-7.714 17.095-7.707 17.152 5.07-4.125 11.409-7.632 17.629-8.374 3.692 1.94 7.762 3.217 11.828 3.947l.16.028c4.237 3.794 8.88 4.605 10.682 3.816.095-.041-2.458-2.019-2.26-3.208h.184c1.573-.074 3.143-.247 4.703-.444 1.267-.163 2.703.296 3.921.619 5.307 1.381 11.04 3.386 15.65 6.343.144.083-6.327-7.025-7.861-10.438zm3.698 7.128c-2.591-1.399-5.23-2.287-7.968-3.28-1.58-.576-4.317-1.59-6.345-1.716-1.11-.07-4.93.076-6.584.118-.503 3.18 1.475 4.254 1.475 4.254-5.686-.057-8.605-3.947-8.85-4.773-3.323-.53-6.692-1.421-9.199-2.571-1.384-.847.902-1.629.91-1.629-7.52-.365-14.984 2.703-20.14 8.127 1.475-2.493 4.294-5.89 9.08-7.47 0 0-3.858.248-8.621 4.779 1.396-5.464 9.346-15.734 8.959-15.441-.951.72-.93.629-1.765 1.467-3.086-1.818-3.966-8.586-4.085-9.29-.014.925.01 1.819.067 2.7.053.82.152 1.638.297 2.448-3.571-.14-6.735-.125-9.02 2.604.148-5.082.645-8.666 2.967-13.264 2.067-4.105 6.11-7.418 8.996-8.57-.42.762-.799 1.545-1.136 2.347-3.412 1.986-6.983 6.299-7.82 10.44 2.144-5.212 5.298-7.747 7.3-8.932 0 0-.286 2.105-.204 1.871.53-1.524 1.454-3.514 3.081-5.971 1.156-1.748 2.734-3.337 4.647-4.27a1.44 1.44 0 00.26-.12c.194-.156.33-.591.475-.82a8.31 8.31 0 01.594-.839c.78-.96 1.713-1.896 2.862-2.398.132-.058.267-.11.402-.16.556-.171 1.597-.211 2.155-.222 2.358-.043 4.584 1.072 6.7 1.96 4.005 1.7 6.792 2.823 10.905 4.397.64.244-6.603-4.237-10.681-5.972a35.103 35.103 0 013.412-.215c1.335-.025 2.688-.022 4.037.064 3.305.258 6.412 1.438 7.204 1.705.332.113-1.09-.874-3.568-1.732.082-.062.169-.118.26-.167.715-.39 1.605-.444 2.4-.407 2.549.1 4.672 1.455 6.642 2.998.546.426 1.06.888 1.577 1.35.231.207 8.16 6.661 8.235 7.224.056.454-.732 1.973-1.132 2.516a44.713 44.713 0 01-2.923 3.534c-2.698 2.96-5.824 5.557-9.377 7.427-7.863 4.136-17.886 4.353-25.855.341-3.37-1.696-6.442-4.41-8.277-7.765-.113.29-.263.565-.445.818.375 2.018.926 4 1.647 5.922 1.172 3.073 4.65 10.868 17.142 16.344 6.824 2.994 13.957 3.9 13.307 3.744-3.468-.84-7.816-1.388-13.48-5.478 4.189.681 6.084.563 8.408-.35a7.137 7.137 0 011.006-.326s3.583 4.607 7.44 5.05c0 0 .786-.501.964-.694a71.3 71.3 0 011.303-1.373 73.561 73.561 0 013.913-3.748c.813-.72 1.632-1.444 2.522-2.082l.037-.026c-1.631 2.22-2.373 4.532-2.035 6.809 0 0-1.065 1.023-1.098 1.38 0 0 1.595.814 2.053.96.543.872 2.212 4.073 4.97 6.382l-.003-.009z" fill="#1D1D3D"/><path d="M35.954 38.846c.01 0 .015.033.019.082-.038-.106-.02-.082-.02-.082zM62.629 58.67c-.02-.107.029.187 0 .026v-.027zm19.709-24.315l.184-.31c-3.626-.916-7.746.386-10.259 3.136-.158.173 3.285-3.24 10.075-2.826zm-1.384 31.498c.013-.01.018-.02.015-.027a.042.042 0 00-.015.027zm.191.552v.029-.038c-.008-.026-.019-.041 0 .038a.035.035 0 000-.029zm-13.239-32.98C61.872 30.67 52.569 27.267 50.5 26.89c-2.003-.366-5.087.122-7.121 2.22 0 0-2.141 1.53-3.056 4.688-1.106 3.83 1.713 7.526 1.85 7.608 1.937 2.245 4.355 3.432 7.269 4.085 3.412.768 7.367.74 10.497-1.109.066-.038 5.587-3.065 5.001-9.154.496.26 2.966-1.801 2.966-1.801zM59.58 43.07a.266.266 0 00-.118.035c-2.985 1.777-6.546 1.49-9.808.783-3.093-.669-5.678-1.686-7.65-4.278-1.021-1.863-.975-4.426-.091-6.165.98-1.925 3.68-3.701 5.92-4.42.952-.07 1.974-.079 2.759.078a37.835 37.835 0 016.073 1.756c3.473 1.332 4.762 1.674 7.344 3.652.391 3.234-1.625 6.716-4.429 8.559zm-24.679-1.752c-.467.221-.16 1.888.233 1.595 1.319-.982 2.049-2.472 2.169-4.096.018-.231-.242-1.333-.277-1.014-.156 1.363-.805 2.895-2.125 3.515z" fill="#1D1D3D"/><path d="M63.386 60.33l1.87-10.051-2.103.7-2.104 10.052 2.337-.701zM43.459 86.861h1.523C44.936 85.203 43.454 84 41.327 84c-2.102 0-3.712 1.188-3.712 2.972 0 1.441 1.043 2.285 2.725 2.735l1.237.334c1.12.293 1.984.657 1.984 1.577 0 1.011-.976 1.679-2.321 1.679-1.217 0-2.23-.536-2.321-1.663h-1.585c.102 1.875 1.57 3.033 3.916 3.033 2.46 0 3.876-1.28 3.876-3.034 0-1.865-1.682-2.588-3.012-2.911l-1.022-.263c-.818-.208-1.907-.587-1.902-1.578 0-.88.813-1.531 2.101-1.531 1.202 0 2.055.556 2.168 1.511zm8.054 7.634h1.58v-3.918h2.249l2.127 3.918h1.8l-2.322-4.191c1.284-.47 1.923-1.527 1.923-2.917 0-1.906-1.197-3.246-3.625-3.246h-3.732v10.354zm1.58-5.263v-3.75h1.983c1.56 0 2.204.732 2.204 1.905 0 1.168-.644 1.845-2.183 1.845h-2.005zm13.298-5.09h-1.83l3.317 5.176-3.338 5.177h1.84l2.516-3.994h.082l2.515 3.994h1.84l-3.281-5.177 3.261-5.177h-1.83l-2.505 4.05h-.082l-2.505-4.05z" fill="#1D1D3D"/></svg>