<svg width="100" height="100" fill="none" xmlns="http://www.w3.org/2000/svg"><circle cx="50" cy="50" r="50" fill="#FFE8F3"/><path opacity=".25" d="M29.377 22.827c.32.053.593.1.872.15 1.155.205 2.31.406 3.46.612 1.233.219 2.466.434 3.699.653 1.147.2 2.298.407 3.443.608l3.444.605c1.155.205 2.31.407 3.46.613l3.486.617c1.145.202 2.297.403 3.442.604 1.147.202 2.292.408 3.443.61 1.155.205 2.31.406 3.467.612.765.136 1.533.276 2.3.407.12.022.201.07.283.14 2.065 1.884 4.13 3.767 6.192 5.65l2.494 2.272c.059.053.127.092.201.145-8.494 9.923-16.956 19.81-25.444 29.73-6.082-14.688-12.156-29.34-18.242-44.028z" fill="#FF64AD"/><path d="M29.377 22.827c.32.053.593.1.872.15 1.155.205 2.31.406 3.46.612 1.233.219 2.466.434 3.699.653 1.147.2 2.298.407 3.443.608l3.444.605c1.155.205 2.31.407 3.46.613l3.486.617c1.145.202 2.297.403 3.442.604 1.147.202 2.292.408 3.443.61 1.155.205 2.31.406 3.467.612.765.136 1.533.276 2.3.407.12.022.201.07.283.14 2.065 1.884 4.13 3.767 6.192 5.65l2.494 2.272c.059.053.127.092.201.145-8.494 9.923-16.956 19.81-25.444 29.73-6.082-14.688-12.156-29.34-18.242-44.028zM47.51 60.343l.06-.013c.046-.346.092-.692.132-1.043.096-.748.188-1.502.283-2.25.096-.767.191-1.529.292-2.295.097-.744.188-1.489.28-2.229.094-.749.191-1.502.286-2.25.097-.75.188-1.503.28-2.252.094-.757.191-1.515.286-2.272.097-.75.188-1.502.285-2.251.108-.867.218-1.739.333-2.606.022-.175-.02-.289-.17-.412-2.36-1.87-4.712-3.744-7.067-5.618a8394.038 8394.038 0 01-8.449-6.717c-.059-.049-.12-.092-.178-.136-.014.009-.027.022-.04.03 4.46 10.773 8.927 21.546 13.387 32.314zm2.484.017a.212.212 0 01.051.03c6.118-7.146 12.233-14.292 18.352-21.444-.01-.012-.015-.026-.022-.039-.078.009-.156.013-.234.027-.192.035-.388.074-.58.105-1.735.302-3.475.6-5.21.897-1.817.315-3.631.635-5.443.95-1.457.254-2.914.504-4.37.758-.183.03-.187.03-.21.201-.073.544-.142 1.082-.21 1.625-.095.745-.186 1.49-.28 2.23-.095.765-.191 1.527-.29 2.294-.097.744-.188 1.489-.28 2.229-.096.757-.191 1.515-.288 2.272-.095.75-.186 1.503-.283 2.251l-.287 2.273-.292 2.295-.124 1.046zm10.81-29.59c0-.017-.006-.039-.006-.056-8.297-1.467-16.593-2.93-24.89-4.392-.01.017-.015.03-.022.048 5.077 4.042 10.16 8.08 15.25 12.13 3.229-2.584 6.448-5.159 9.668-7.73zm2.69.868c-.056.04-.102.066-.147.105l-8.982 7.186a.015.015 0 000 .017c0 .005.004.01.023.035 4.784-.831 9.584-1.663 14.384-2.5-.097-.153-4.882-4.545-5.279-4.843z" fill="#FF64AD"/><path d="M37.5 76.784h2.643v7.383h1.276v-7.383h2.648v-1.102H37.5v1.102zm9.684 7.383h1.28v-3.211h1.824l1.723 3.21h1.458l-1.88-3.434c1.04-.385 1.557-1.251 1.557-2.39 0-1.562-.97-2.66-2.937-2.66h-3.025v8.485zm1.28-4.313V76.78h1.608c1.264 0 1.786.6 1.786 1.562 0 .957-.522 1.512-1.77 1.512h-1.623zm8.797-4.172h-1.483l2.689 4.242-2.705 4.243h1.491l2.038-3.273h.067l2.038 3.273h1.492l-2.66-4.243 2.643-4.242h-1.483L59.358 79h-.067l-2.03-3.318z" fill="#1D1D3D"/></svg>