<svg width="130" height="130" fill="none" xmlns="http://www.w3.org/2000/svg"><path d="M65 130c35.899 0 65-29.101 65-65 0-35.898-29.101-65-65-65C29.102 0 0 29.102 0 65c0 35.899 29.102 65 65 65z" fill="#B3F3E7"/><path d="M67.781 26.927c-.366-.045-.843.088-2.918 2.278-2.597 2.711-3.74 4.378-3.74 4.378-2.64 3.834-4.327 6.268-6.657 10.724-2.397 4.59-1.809 4.301-4.061 8.458-2.53 4.678-3.806 7.023-5.515 8.779-2.197 2.245-4.139 3.267-5.515 6.346a12.138 12.138 0 00-.975 3.41c-.178 1.356-.566 4.357 1.298 6.824.333.444 1.298 1.722 2.918 2.278 2.686.922 4.572-1 10.553-3.412 3.939-1.589 5.914-2.378 8.766-2.433 3.55-.067 6.713 1.022 7.955 1.466 4.295 1.523 6.658 2.6 6.658 2.6 1.376.634 2.552 1.234 4.061.979 1.454-.245 2.408-1.145 2.918-1.623.389-.366 2.93-2.756 2.43-6.179-.277-1.889-1.409-3.067-2.43-4.223 0 0-3.273-3.734-6.657-10.246-1.287-2.49-1.998-5.723-3.407-12.191-.444-2.034-1.187-5.657-2.43-10.724-1.231-4.957-1.964-7.346-3.25-7.49z" fill="#fff"/><path d="M38.77 72.317c-1.369.344-1.335 3.505.583 6.346.342.51 1.335 1.975 3.001 2.613 2.762 1.057 4.702-1.147 10.853-3.912 4.051-1.823 6.082-2.727 9.015-2.791 3.652-.077 6.904 1.172 8.182 1.682 4.417 1.746 6.847 2.982 6.847 2.982 1.416.726 2.658.618 4.21.325 1.495-.28 2.45-1.436 2.976-1.984.4-.42 2.109-5.569 1.984-5.951-3.778 1.898-7.789-1.565-11.463-2.992-18.841-7.29-24.695.828-36.187 3.682z" fill="#DADADA"/><path d="M58.771 71.924c-5.992 1.711-13.492 7.601-16.189 8.468.011 0 .023.011.023.011 2.685.923 4.571-1 10.552-3.412 3.939-1.589 5.914-2.378 8.766-2.433 3.55-.067 6.713 1.022 7.956 1.467 4.294 1.522 6.657 2.6 6.657 2.6 1.376.634 2.552 1.234 4.061.978a4.397 4.397 0 001.41-.489c-3.751-.711-12.783-10.168-23.236-7.19z" fill="#A0A0A0"/><path d="M85.601 69.245c-.521-.967-1.265-1.756-1.975-2.59-1.287-1.51-2.419-3.167-3.495-4.834-1.565-2.433-3.151-4.978-4.05-7.745-.943-2.934-1.531-5.99-2.186-8.991-.6-2.745-1.176-5.49-1.82-8.235-.455-1.934-.91-3.878-1.442-5.79-.344-1.244-.688-2.556-1.32-3.7-.334-.6-.788-1.245-1.532-1.356-.588-.056-1.132.478-1.531.822-1.298 1.156-2.475 2.478-3.606 3.8-1.51 1.768-2.797 3.69-4.084 5.624a79.44 79.44 0 00-5.226 9.102c-1.076 2.178-1.953 4.434-3.096 6.579-1.431 2.645-2.763 5.423-4.627 7.768-1.786 2.256-4.372 3.756-5.858 6.257-1.543 2.589-2.209 5.89-1.831 8.89.355 2.812 2.108 5.801 5.004 6.568 2.03.533 4.083-.678 5.848-1.534a80.155 80.155 0 014.993-2.211c1.553-.623 3.118-1.278 4.738-1.712 3.118-.833 6.402-.51 9.487.367 2.63.745 5.204 1.79 7.723 2.867.788.334 1.553.734 2.363 1.023 1.598.567 3.218.41 4.616-.578 1.764-1.245 3.13-3.2 3.562-5.323.333-1.69.177-3.534-.655-5.068zm-.088 4.367c-.256 1.123-.877 2.134-1.632 2.99-.543.622-1.187 1.211-2.03 1.645-1.687.878-3.318.344-4.938-.4-1.808-.834-3.673-1.545-5.537-2.223-2.852-1.045-5.748-1.945-8.821-1.99-2.985-.055-5.692.945-8.422 2.046a80.085 80.085 0 00-5.004 2.178c-1.088.522-2.153 1.078-3.285 1.489-.799.289-1.653.467-2.496.322-1.243-.2-2.342-.989-3.13-1.945-1.708-2.033-1.841-4.656-1.264-7.134a10.732 10.732 0 012.186-4.434c.954-1.145 2.141-2.068 3.217-3.101 1.776-1.69 3.03-3.678 4.228-5.801 1.431-2.534 2.874-5.079 4.017-7.757 1.154-2.712 2.507-5.346 3.994-7.89 1.465-2.5 3.085-4.923 4.76-7.28.5-.7 1.055-1.377 1.62-2.033 1.088-1.278 2.22-2.567 3.474-3.679.377-.344.854-.81 1.32-.766.633.088.977.8 1.21 1.31.576 1.268.91 2.657 1.253 4.002.855 3.278 1.61 6.59 2.32 9.901.61 2.823 1.198 5.657 1.875 8.469.521 2.145 1.076 4.334 2.075 6.312a62.297 62.297 0 004.993 8.19c.888 1.234 1.897 2.334 2.83 3.523.954 1.167 1.53 2.545 1.187 4.056z" fill="#1D1D3D"/><path d="M66.772 33.805s-1.632 28.927-1.11 29.894c.71 1.312 3.073 1.134 5.104 1.334 5.681.555 8.4 4.39 9.099 3.667.766-.778-4.55-6.068-7.113-12.78-1.82-4.79-5.048-22.337-5.98-22.115zM43.47 67.7c.321.39 1.486-.666 4.993-1.778 4.027-1.267 6.946-2.189 10.54-1.889 1.21.1 2.242.322 2.997-.333.743-.645.765-1.745.776-4.335.012-3.033.023-4.556 0-4.778-.343-4.445.544-8.98 1.443-13.558 1.298-6.657 2.896-9.846 2.33-10.113-.71-.345-3.728 4.356-5.77 8.001-4.26 7.624-3.628 9.535-6.657 15.003C49.35 62.5 42.748 66.833 43.469 67.7z" fill="#F7F7FA"/><path d="M43.468 101.369h3.48v9.722h1.681v-9.722h3.486v-1.451h-8.647v1.451zm12.962 0h3.48v9.722h1.68v-9.722h3.487v-1.451H56.43v1.451zm13.513 9.722h1.686v-4.872h5.57v4.872h1.691V99.918H77.2v4.855h-5.57v-4.855h-1.686v11.173z" fill="#000"/></svg>