<svg width="95" height="75" fill="none" xmlns="http://www.w3.org/2000/svg"><path fill-rule="evenodd" clip-rule="evenodd" d="M58.257 70.43a26.8 26.8 0 01-1.209.022c-.604 0-1.204-.018-1.8-.046a34.42 34.42 0 01-8.034-1.363 34.893 34.893 0 01-11.988-6.226 35.026 35.026 0 01-7.917-8.884v-.005a34.771 34.771 0 01-4.271-10.07 35.272 35.272 0 01-1.014-8.812c.018-2.04.214-4.03.568-5.967.127-.704.277-1.395.45-2.077C26.159 15.637 36.08 7.088 48.15 6.007v24.94c-.231.4-.454.804-.668 1.213-.05.091-.095.182-.14.273a28.132 28.132 0 00-.914 1.981c-.018.046-.036.087-.05.128-.082.19-.16.386-.232.581-.004.023-.018.041-.023.06-.19.49-.363.99-.522 1.495-.136.427-.264.854-.373 1.286l-.082.318c-.004.009-.009.018-.009.032v.004a21.74 21.74 0 00-.331 1.454 30.783 30.783 0 00-.273 1.595 23.439 23.439 0 00-.182 1.61c-.018.217-.032.43-.045.649 0 .018-.005.032-.005.05-.014.218-.023.427-.027.645l-.014.391c-.004.118-.004.232-.004.35-.005.118-.005.232-.005.35 0 .164 0 .327.005.495.004.141.004.278.013.418.005.11.005.218.014.328.004.195.018.386.027.572.014.21.027.423.046.632l.054.577c.005.018.005.04.005.06l.059.485c0 .014.004.023.004.037.014.136.032.272.05.409.005.05.019.095.023.14a9.355 9.355 0 00.082.532 27.688 27.688 0 00.522 2.472c.123.473.255.941.4 1.41.055.177.114.354.173.531.04.132.086.264.136.39.341.973.732 1.923 1.168 2.846.096.195.187.39.287.586.095.19.195.386.3.572.172.328.35.65.54.973.023.04.046.073.069.114a28.201 28.201 0 001.658 2.5c0 .004.005.013.01.017.077.105.154.214.24.318.123.164.246.323.373.482.009.014.023.027.032.041l.104.132a36.219 36.219 0 003.245 3.581c.045.045.095.09.14.136.542.518 1.11 1.014 1.696 1.477.095.073.186.15.282.218a11.177 11.177 0 00.505.382c.122.09.249.182.372.268.063.045.127.091.195.136a20.951 20.951 0 001.177.75z" fill="url(#paint0_linear)"/><path fill-rule="evenodd" clip-rule="evenodd" d="M48.154 8.187v23.695c0 2.545-1.159 4.844-3.036 6.512-1.89 1.677-4.499 2.718-7.384 2.718-5.758 0-10.425-4.131-10.425-9.23.004-1.218.095-2.377.259-3.477 2.317-15.66 19.39-19.936 20.527-20.204l.06-.014z" fill="#E4E4E4"/><path fill-rule="evenodd" clip-rule="evenodd" d="M33.37 27.178a7.394 7.394 0 0014.787 0V8.187s-14.72 3.672-14.788 18.991z" fill="#fff"/><path opacity=".3" fill-rule="evenodd" clip-rule="evenodd" d="M58.261 70.428a28.76 28.76 0 01-2.09.009 30.927 30.927 0 01-.918-.032 34.58 34.58 0 01-8.04-1.359 34.894 34.894 0 01-11.988-6.226c-1.113-13.16 9.916-24.499 9.916-24.499a21.8 21.8 0 00-.331 1.455 30.713 30.713 0 00-.273 1.595c-.077.527-.14 1.068-.182 1.608-.018.218-.031.432-.045.65 0 .018-.005.032-.005.05-.013.218-.022.427-.027.645l-.014.391c-.004.118-.004.232-.004.35-.005.118-.005.232-.005.35 0 .164 0 .327.005.496.004.14.004.277.014.418.004.109.004.218.013.327.005.195.018.386.027.572.014.21.028.423.046.632a264.388 264.388 0 00.059.636l.059.487c0 .013.005.022.005.036.013.136.031.273.05.409.004.05.018.095.022.14a11.89 11.89 0 00.082.533 27.686 27.686 0 00.523 2.472c.122.472.254.94.4 1.408.054.178.113.355.172.532.041.132.087.264.137.391.34.973.731 1.922 1.167 2.845.096.195.187.39.287.586.095.191.195.386.3.573.172.327.35.65.54.972.023.041.046.073.069.114a28.177 28.177 0 001.659 2.5c0 .004.004.013.009.017.077.105.154.214.24.319.123.163.246.322.373.481l.032.041c.036.046.073.091.104.132a36.233 36.233 0 003.245 3.581c.046.046.096.091.141.136.54.519 1.109 1.014 1.695 1.477.096.073.186.15.282.219a11.316 11.316 0 00.504.382 18.81 18.81 0 00.568.404c.205.14.418.281.632.418.177.104.359.218.545.327z" fill="url(#paint1_linear)"/><path opacity=".4" fill-rule="evenodd" clip-rule="evenodd" d="M58.257 70.428c-.4.018-.804.023-1.209.023-.604 0-1.204-.018-1.8-.046a34.36 34.36 0 01-3.058-.29 33.557 33.557 0 01-4.976-1.073 34.893 34.893 0 01-11.988-6.226 35.024 35.024 0 01-7.917-8.884v-.005c-3.358-5.362-5.29-11.706-5.29-18.5 3.25 19.136 16.642 28.034 26.195 32.006a54.14 54.14 0 003.972 1.473c3.63 1.172 6.071 1.522 6.071 1.522z" fill="url(#paint2_linear)"/><path opacity=".3" fill-rule="evenodd" clip-rule="evenodd" d="M48.15 6.007V7.06s-30.102 4.122-25.108 36.797h-.005a35.272 35.272 0 01-1.013-8.812c.018-2.04.214-4.03.568-5.967.127-.704.277-1.395.45-2.077C26.159 15.637 36.08 7.088 48.15 6.007z" fill="url(#paint3_linear)"/><path opacity=".4" fill-rule="evenodd" clip-rule="evenodd" d="M57.712 70.092C19.14 54.4 27.405 28.905 27.57 28.405c-.164 1.1-.25 2.259-.26 3.477 0 5.099 4.668 9.23 10.426 9.23 2.886 0 5.499-1.041 7.385-2.718-.118.455-.223.918-.314 1.382a30.82 30.82 0 00-.273 1.595c-.077.527-.14 1.068-.181 1.608-.018.218-.032.432-.046.65 0 .018-.004.032-.004.05-.014.218-.023.427-.028.646l-.013.39c-.005.118-.005.232-.005.35-.004.119-.004.232-.004.35 0 .164 0 .327.004.496.005.14.005.277.014.418.004.109.004.218.013.327.005.195.019.386.028.572.013.21.027.423.045.632a264.724 264.724 0 00.06.636l.058.487c0 .013.005.022.005.036.014.136.032.273.05.409.004.05.018.095.023.14.018.146.04.287.063.428.005.036.01.073.018.105a27.674 27.674 0 00.523 2.472c.123.472.255.94.4 1.409a24.519 24.519 0 00.309.922c.34.973.732 1.922 1.168 2.845.095.195.186.39.286.586.096.191.196.386.3.573.173.327.35.65.54.972.024.041.046.073.07.114a28.201 28.201 0 001.658 2.5c0 .004.004.013.009.017.077.105.154.214.24.319.123.163.246.322.373.481l.032.041.105.132a36.22 36.22 0 003.245 3.581c.045.046.095.091.14.136a23.5 23.5 0 001.696 1.477c.095.073.186.15.281.219a11.037 11.037 0 00.505.382 21.508 21.508 0 00.568.404l.631.409z" fill="url(#paint4_linear)"/><path fill-rule="evenodd" clip-rule="evenodd" d="M46.115 17.582c0 1.575-.596 3.01-1.576 4.09 0 .011-.01.011-.01.011a6.065 6.065 0 01-4.515 2 6.096 6.096 0 01-6.102-6.101 6.116 6.116 0 013.718-5.617c.01 0 .01 0 .02-.01a6.132 6.132 0 012.364-.475c3.364.01 6.101 2.738 6.101 6.102z" fill="url(#paint5_linear)"/><path opacity=".4" fill-rule="evenodd" clip-rule="evenodd" d="M44.527 21.683a6.357 6.357 0 01-5.293 2.839 6.374 6.374 0 01-6.375-6.375c0-2.97 2.03-5.465 4.779-6.182a6.116 6.116 0 00-3.718 5.616 6.096 6.096 0 006.102 6.102 6.058 6.058 0 004.505-2z" fill="url(#paint6_linear)"/><path opacity=".4" fill-rule="evenodd" clip-rule="evenodd" d="M40.503 23.38a5.6 5.6 0 01-5.607-5.606 5.6 5.6 0 015.607-5.607 5.612 5.612 0 015.606 5.506v-.101a6.096 6.096 0 00-6.101-6.102 6.096 6.096 0 00-6.102 6.102 6.096 6.096 0 006.102 6.101 6.078 6.078 0 004.435-1.93 5.483 5.483 0 01-3.94 1.637z" fill="url(#paint7_linear)"/><path d="M40.01 21.239a3.657 3.657 0 100-7.314 3.657 3.657 0 000 7.314z" fill="#000"/><path opacity=".5" fill-rule="evenodd" clip-rule="evenodd" d="M42.828 17.581c0 1.566-.657-4.232-5.657 0-.576.485.495-3.343 2.828-2.828 1.536.343 2.829 1.273 2.829 2.828z" fill="url(#paint8_linear)"/><path fill-rule="evenodd" clip-rule="evenodd" d="M63.594 53.736v.105a30.673 30.673 0 01-.29 3.617v.005c-.042.318-.087.632-.142.945-.09.545-.186 1.09-.304 1.627-.282 1.3-.64 2.572-1.073 3.804a30.549 30.549 0 01-1.327 3.23c-.154.324-.313.646-.477.969-.027.05-.054.104-.082.159-.331.64-.79 1.431-1.177 2.072a13.9 13.9 0 01-.177.282c-.209-.127-.413-.264-.618-.395-.24-.16-.477-.323-.709-.491-.073-.055-.145-.105-.218-.16l-.423-.313c-.14-.104-.277-.213-.418-.327-.05-.036-.1-.077-.15-.123a7.861 7.861 0 01-.313-.259 28.36 28.36 0 01-1.9-1.727c-.054-.054-.109-.104-.159-.159a40.916 40.916 0 01-3.276-3.722c-.11-.145-.228-.29-.341-.436-.041-.05-.078-.1-.118-.154-.01-.014-.028-.032-.037-.05a11.774 11.774 0 01-.413-.56c-.096-.117-.178-.245-.264-.367-.009-.005-.009-.01-.009-.019a31.91 31.91 0 01-1.831-2.886c-.023-.045-.05-.086-.073-.131-.205-.368-.405-.74-.59-1.123-.114-.218-.224-.44-.328-.663a32.662 32.662 0 01-1.577-3.945c-.05-.15-.1-.295-.145-.45a32.292 32.292 0 01-.604-2.222c-.046-.195-.087-.39-.133-.586-.159-.74-.29-1.486-.404-2.245-.005-.041-.014-.082-.014-.123-.032-.218-.059-.436-.086-.654-.018-.155-.032-.314-.05-.468 0-.014-.005-.028-.005-.041l-.054-.555c-.005-.022-.005-.045-.005-.068a45.771 45.771 0 01-.086-1.381c-.01-.218-.018-.437-.018-.655-.005-.127-.005-.25-.01-.377-.004-.159-.004-.318-.004-.477 0-.186.005-.377.01-.564.004-.136.004-.268.013-.4.004-.131.004-.263.014-.395.004-.145.013-.3.022-.445.014-.246.028-.491.05-.736 0-.019.005-.037.005-.055l.068-.722c.063-.623.145-1.237.245-1.846.096-.609.214-1.213.346-1.813a28.2 28.2 0 01.527-2.05c.14-.49.29-.977.459-1.458.195-.573.409-1.132.632-1.69l.027-.069a47.396 47.396 0 01.341-.804c.113-.26.231-.514.35-.773.231-.49.477-.981.736-1.463.054-.1.109-.21.168-.31.254-.463.518-.917.79-1.367.01-.01.014-.027.023-.036.005-.01.01-.014.014-.023.005-.01.01-.01.014-.014.018-.032.031-.05.031-.05.078.046.15.096.228.141a32.912 32.912 0 0113.788 17.774 27.591 27.591 0 01.386 1.304c.064.218.118.44.172.659.055.222.11.445.16.668.054.227.1.45.15.672.045.214.086.428.127.646.004.031.013.063.018.1.032.172.068.345.09.527a21.594 21.594 0 01.115.718c.027.168.05.327.068.495.022.146.036.287.054.432l.014.123v.009l.04.382c.11 1.29.164 2.603.137 3.93z" fill="url(#paint9_linear)"/><path opacity=".5" fill-rule="evenodd" clip-rule="evenodd" d="M57.033 69.456a28.324 28.324 0 01-3.108-2.845c-1.195-1.254-2.29-2.604-3.309-3.99-.104-.15-.218-.3-.327-.45-.036-.05-.077-.105-.113-.159-.01-.014-.023-.036-.037-.05-.89-1.24-1.69-2.55-2.4-3.913-.022-.045-.045-.086-.067-.132a32.51 32.51 0 01-3.613-14.647c-.01-.686.009-1.376.045-2.067.01-.137.014-.268.027-.4.01-.132.014-.264.023-.395.014-.146.023-.296.036-.446.023-.245.046-.486.073-.731.032-.26.064-.519.1-.778a32.48 32.48 0 014.567-12.715c-.295-.195-.595-.39-.9-.577 0 0-.013.018-.031.05l-.014.014c-.004.009-.009.013-.014.022-.009.01-.013.027-.022.037a32.588 32.588 0 00-4.622 13.647c-.027.259-.05.518-.077.777a39.548 39.548 0 00-.073 1.181l-.014.396a31.476 31.476 0 00.009 2.472 36.523 36.523 0 00.3 3.29 32.504 32.504 0 003.786 11.234c.023.045.05.086.073.132a32.586 32.586 0 002.522 3.83c.009.014.027.033.036.05.041.055.078.105.118.155.114.146.232.291.341.437a42.023 42.023 0 003.436 3.88 27.77 27.77 0 003.2 2.745c.072.055.145.105.217.16.432.308.877.608 1.327.886-.44-.291-.877-.605-1.295-.927a1.478 1.478 0 00-.2-.173z" fill="url(#paint10_linear)"/><path opacity=".3" fill-rule="evenodd" clip-rule="evenodd" d="M63.595 53.736v.105a30.67 30.67 0 01-.291 3.617v.005a22.63 22.63 0 01-.141.945c-.09.545-.186 1.09-.304 1.627a32.01 32.01 0 01-1.073 3.804 30.548 30.548 0 01-1.327 3.23 47.563 47.563 0 01-.559 1.128 38.84 38.84 0 01-.995 1.763c-.064.104-.123.209-.182.304 0 0-.995-1.645-2.386-4.64-.023-.05-.045-.1-.073-.154-3.322-7.203-8.775-21.954-8.266-40.246l.268.077a32.91 32.91 0 0113.788 17.774 27.591 27.591 0 01.386 1.304c.064.218.119.44.173.659.055.223.11.445.16.668.054.227.1.45.15.673.045.213.085.427.126.645.005.032.014.064.019.1.031.173.068.345.09.527.01.05.019.105.028.16.032.185.059.372.086.558.027.168.05.327.068.495.023.146.037.287.055.432l.013.123v.009l.041.382c.118 1.286.173 2.6.146 3.926z" fill="url(#paint11_linear)"/><path opacity=".3" fill-rule="evenodd" clip-rule="evenodd" d="M63.594 53.736v.105a30.648 30.648 0 01-.29 3.617 13.501 13.501 0 01-2.391.332c-11.12.514-17.719-14.033-17.719-14.033a31.441 31.441 0 01-.023-2.072c.005-.137.005-.269.014-.4.005-.132.005-.264.014-.396.004-.145.013-.3.022-.445.014-.245.028-.49.05-.736.023-.26.046-.518.078-.777a32.527 32.527 0 014.621-13.647c.01-.01.014-.028.023-.037.005-.009.01-.013.014-.023.004-.009.009-.009.013-.013 0-.01.01-.01.01-.014.004-.009.008-.009.008-.013.01-.014.014-.023.014-.023s.005 0 .005.004l.081.055A32.864 32.864 0 0162.45 44.384c.064.218.118.44.173.659.054.223.109.445.159.668.054.227.1.45.15.673.045.213.086.427.127.645.005.032.014.063.018.1.032.172.068.345.091.527.01.05.018.105.027.16.032.185.06.372.087.558.027.168.05.327.068.495.023.146.036.287.054.432l.014.123v.009l.04.382c.11 1.281.164 2.595.137 3.922z" fill="url(#paint12_linear)"/><path opacity=".4" fill-rule="evenodd" clip-rule="evenodd" d="M62.158 57.676a8.21 8.21 0 01-.05.328 13.46 13.46 0 01-2.404.245c-8.83.086-14.465-9.198-16.424-13.038a38.5 38.5 0 01-.09-1.45s6.598 14.552 17.718 14.034c.282-.014.564-.037.855-.069.132-.018.263-.031.395-.05z" fill="url(#paint13_linear)"/><path opacity=".3" fill-rule="evenodd" clip-rule="evenodd" d="M63.593 53.736v.105a30.67 30.67 0 01-.291 3.617c-18.855-9.416-15.306-32.234-15.306-32.234l.127-.009a32.864 32.864 0 0114.31 19.164 34.945 34.945 0 01.332 1.327c.055.227.1.45.15.673.046.213.087.427.128.645.004.032.013.064.018.1.032.173.068.345.09.527.01.05.019.105.028.16.032.185.06.372.086.558.028.168.05.327.069.495.022.146.036.287.054.432l.014.123v.009l.04.382c.123 1.286.178 2.6.15 3.926z" fill="url(#paint14_linear)"/><path opacity=".5" fill-rule="evenodd" clip-rule="evenodd" d="M60.896 57.69c-11.134.05-17.119-14.76-17.119-14.76 0-.686.018-1.377.064-2.068.009-.136.018-.268.031-.4l.028-.395.04-.446c.023-.245.05-.486.078-.731.036-.26.068-.518.109-.777a32.497 32.497 0 014.59-12.511c-.227-.15-.455-.296-.682-.441 0 0-.009.009-.013.023-.005.009-.014.018-.014.027-.01.009-.014.023-.023.036-.009.01-.014.027-.023.037a32.59 32.59 0 00-4.621 13.647c-.028.259-.05.518-.078.777a39.548 39.548 0 00-.072 1.181l-.014.396a5.825 5.825 0 00-.014.4c-.013.695-.009 1.386.023 2.072 0 0 6.599 14.551 17.72 14.033a12.661 12.661 0 002.39-.336c-.528.1-1.046.168-1.55.2a8.942 8.942 0 01-.85.036z" fill="url(#paint15_linear)"/><path opacity=".3" fill-rule="evenodd" clip-rule="evenodd" d="M63.44 49.806c-.323-.082-.637-.178-.95-.273a16.75 16.75 0 01-2.745-1.154c-2.622-1.382-4.658-3.354-6.24-5.572-.227-.314-.44-.636-.645-.954v-.01a24.13 24.13 0 01-1.518-2.763c-.34-.718-.645-1.44-.918-2.163a31.156 31.156 0 01-.818-2.431v-.005c-1.495-5.04-1.563-9.325-1.563-9.325a32.896 32.896 0 0114.21 18.564c.064.218.123.437.187.655.064.218.118.44.172.659.055.222.11.445.16.668.054.227.1.45.15.672.045.214.086.428.127.646.004.031.013.063.018.1.032.172.068.345.09.527a21.594 21.594 0 01.115.718c.027.168.05.327.068.495.022.146.036.287.054.432l.014.123v.009c.009.122.018.25.032.382z" fill="url(#paint16_linear)"/><path opacity=".4" fill-rule="evenodd" clip-rule="evenodd" d="M63.44 49.806c-8.262-6.38-14.674-23.673-15.397-24.527v-.118a32.895 32.895 0 0114.21 18.564c.064.218.123.436.187.654.064.219.118.441.172.66.055.222.11.445.16.667.054.228.1.45.15.673.045.214.086.427.127.645.004.032.013.064.018.1.032.173.068.346.09.527a20.943 20.943 0 01.115.719c.027.168.05.327.068.495.022.145.036.286.054.432l.014.122v.01c.009.117.018.245.032.377z" fill="url(#paint17_linear)"/><path opacity=".5" fill-rule="evenodd" clip-rule="evenodd" d="M62.499 49.506a16.603 16.603 0 01-2.713-1.227c-2.586-1.45-4.572-3.472-6.094-5.731a21.967 21.967 0 01-.623-.973v-.009a23.678 23.678 0 01-1.445-2.799 29.063 29.063 0 01-.863-2.186 33.385 33.385 0 01-.755-2.45v-.004a39.735 39.735 0 01-1.304-8.539 32.588 32.588 0 00-.659-.427s.068 4.285 1.563 9.325v.005a32.33 32.33 0 001.736 4.594c.441.936.946 1.863 1.518 2.763v.01c.21.322.423.64.645.954 1.582 2.217 3.618 4.19 6.24 5.571a16.51 16.51 0 003.695 1.427 18.958 18.958 0 01-.941-.304z" fill="url(#paint18_linear)"/><path opacity=".4" fill-rule="evenodd" clip-rule="evenodd" d="M62.555 50.337a16.906 16.906 0 01-3.645-1.559c-2.572-1.477-4.535-3.517-6.035-5.79-.213-.322-.418-.65-.613-.976v-.01a24.703 24.703 0 01-1.418-2.812 26.496 26.496 0 01-.84-2.195 30.49 30.49 0 01-.732-2.459v-.005c-1.314-5.09-1.232-9.375-1.232-9.375s.068 4.286 1.563 9.325v.005a32.18 32.18 0 001.736 4.594c.441.937.946 1.864 1.518 2.764v.009c.21.322.423.64.645.954 1.582 2.218 3.618 4.19 6.24 5.572.854.454 1.763.84 2.745 1.154.014.1.018.195.027.29l.01.123v.01c.017.122.027.25.031.381z" fill="url(#paint19_linear)"/><path opacity=".4" fill-rule="evenodd" clip-rule="evenodd" d="M58.543 70.548c-.459.01-.918.004-1.381-.005a38.162 38.162 0 01-2.05-.095c-.145-.11-.29-.223-.432-.34a28.179 28.179 0 01-3.244-3.091 41.673 41.673 0 01-3.213-4.067c-.105-.155-.21-.305-.314-.46-.036-.05-.077-.104-.109-.158-.009-.014-.023-.032-.032-.05a32.793 32.793 0 01-2.304-3.968c-.023-.05-.04-.09-.068-.136a32.572 32.572 0 01-3.25-14.729 31.722 31.722 0 01.133-2.467c.009-.132.018-.26.031-.396.018-.145.032-.3.05-.445.028-.245.06-.486.091-.732.041-.259.078-.513.118-.772a32.507 32.507 0 015.386-13.361c.004-.005.004-.01.009-.01.004-.008.013-.017.018-.026.004-.01.009-.01.014-.019-.005.01-.01.014-.014.023-.01.01-.014.027-.023.037-.273.45-.536.904-.79 1.367-.06.1-.114.21-.169.31a18.6 18.6 0 00-.34.658c-.137.268-.264.532-.391.8-.119.26-.241.514-.35.773a16.145 16.145 0 00-.34.8c-.01.027-.02.045-.028.068a32.802 32.802 0 00-.632 1.69 28.279 28.279 0 00-.51 1.632 6.51 6.51 0 01-.054.186c-.15.555-.29 1.123-.418 1.69a26.62 26.62 0 00-.345 1.814c-.055.345-.105.69-.15 1.04-.027.196-.045.387-.068.582a21.82 21.82 0 00-.096.95c0 .014-.004.032-.004.05a39.548 39.548 0 00-.073 1.182l-.014.395a5.831 5.831 0 00-.013.4 23.531 23.531 0 00.004 1.413 34.788 34.788 0 00.055 1.377c.027.441.068.882.114 1.323.022.209.04.422.072.631.018.168.041.328.064.496.036.259.073.522.118.781.032.191.064.387.1.582.023.136.05.277.077.413.082.391.164.787.255 1.178.032.127.059.254.09.381.205.827.441 1.645.71 2.445.059.186.122.373.19.555.228.659.482 1.304.755 1.94a35.972 35.972 0 00.913 1.954c.082.173.168.341.264.505.104.209.218.413.332.613.022.046.05.087.072.132.368.654.76 1.3 1.173 1.927a30.634 30.634 0 001.35 1.909c.009.013.027.031.036.05.04.054.077.104.118.154.114.145.232.29.34.436a43.76 43.76 0 001.678 2.018 33.322 33.322 0 001.363 1.468c.118.118.236.245.36.364.008.009.022.018.03.031a33.232 33.232 0 001.292 1.21 37.36 37.36 0 00.917.777c.046.04.1.081.15.122.137.109.278.218.419.327.136.105.277.214.422.314l1.536 1.054z" fill="url(#paint20_linear)"/><path d="M77.923 25.265a28.741 28.741 0 00-8.525-5.026c-.328-.127-.664-.24-.995-.354a28.362 28.362 0 00-3.1-.846 28.8 28.8 0 00-5.04-.609c-.131-.004-.263-.004-.395-.009-.132-.004-.268-.004-.4-.004H48.152V6.006a27.995 27.995 0 012.15-.118c.15-.005.3-.005.45-.005 3.04.005 5.971.477 8.716 1.35a28.8 28.8 0 0113.647 9.352c.027.032.055.069.082.1a28.699 28.699 0 014.726 8.58z" fill="url(#paint21_linear)"/><path d="M77.923 25.265h-29.77v-6.844h11.151c.055 0 .105 0 .164.005.132 0 .268 0 .4.005.132.004.264.004.395.009a28.756 28.756 0 015.04.608c.527.114 1.05.241 1.568.382a28.36 28.36 0 013.218 1.086 28.84 28.84 0 017.83 4.754c0-.005.004-.005.004-.005z" fill="url(#paint22_linear)"/><path opacity=".4" fill-rule="evenodd" clip-rule="evenodd" d="M77.923 25.265a28.744 28.744 0 00-8.525-5.026c-.328-.127-.664-.24-.995-.355a28.451 28.451 0 00-5.781-1.281 28.8 28.8 0 00-2.359-.173c-.131-.004-.263-.004-.395-.009-.132-.004-.268-.004-.4-.004H48.152v-1.068l11.411.404c.055 0 .105.005.164.005.132.004.268.009.4.018a28.357 28.357 0 012.745.282c.904.136 1.79.318 2.663.531.523.132 1.04.277 1.55.441.513.16 1.018.327 1.513.518.332.127.659.255.986.391.227.095.454.195.682.295a28.579 28.579 0 017.657 5.031z" fill="url(#paint23_linear)"/><path opacity=".4" fill-rule="evenodd" clip-rule="evenodd" d="M77.923 25.265a28.732 28.732 0 00-7.989-4.494c-.232-.082-.463-.164-.7-.246a23.604 23.604 0 00-1.009-.318c-.509-.15-1.022-.29-1.545-.409a22.507 22.507 0 00-1.577-.327 29.201 29.201 0 00-5.058-.44c-.132 0-.263.004-.395.004-.132.004-.268.004-.4.009l-8.894.295-2.204.073v-.995h11.316c.132.004.268.004.4.004.132.005.264.005.395.01a28.756 28.756 0 015.04.608c.527.114 1.05.241 1.568.382a28.451 28.451 0 013.218 1.086 28.853 28.853 0 017.834 4.758z" fill="url(#paint24_linear)"/><path fill-rule="evenodd" clip-rule="evenodd" d="M50.356 18.421v6.844h-2.204v-6.84l2.204-.004z" fill="url(#paint25_linear)"/><path fill-rule="evenodd" clip-rule="evenodd" d="M50.356 6.005v12.41l-2.204.005V6.005a28 28 0 012.15-.118l.054.118z" fill="url(#paint26_linear)"/><path fill-rule="evenodd" clip-rule="evenodd" d="M77.929 25.265h-7.744a7.325 7.325 0 01-.44-2.513c0-.786.122-1.54.35-2.245a28.853 28.853 0 017.834 4.758z" fill="url(#paint27_linear)"/><path fill-rule="evenodd" clip-rule="evenodd" d="M77.927 25.265a28.744 28.744 0 00-7.835-4.758 7.316 7.316 0 013.026-3.922c.028.032.055.068.082.1a28.7 28.7 0 014.727 8.58z" fill="url(#paint28_linear)"/><path opacity=".3" fill-rule="evenodd" clip-rule="evenodd" d="M77.923 25.265c-10.575-19.027-29.77-19.26-29.77-19.26a27.995 27.995 0 012.149-.117c.15-.005.3-.005.45-.005 3.04.005 5.971.477 8.716 1.35a28.8 28.8 0 0113.647 9.352c.027.032.055.069.082.1a28.699 28.699 0 014.726 8.58z" fill="url(#paint29_linear)"/><path opacity=".3" fill-rule="evenodd" clip-rule="evenodd" d="M77.923 25.265h-29.77c13.333-4.18 29.43-.086 29.761-.004.005.004.01.004.01.004z" fill="url(#paint30_linear)"/><path d="M71.603 57.994s.471 11.967 11.928 10.356c0 0 1.099-10.356-11.928-10.356z" fill="#ACD461"/><path opacity=".5" d="M71.603 57.994s.471 11.967 11.928 10.356c0 0-4.551-3.145-11.928-10.356z" fill="#ACD461"/><path d="M83.529 68.35s13.575-4.296 8.082-19.638c0 0-14.125 5.063-8.082 19.638z" fill="#1B7552"/><path opacity=".17" d="M83.529 68.35s2.903-8.208 8.082-19.638c0 0-14.125 5.063-8.082 19.638z" fill="#1B7552"/><path d="M91.386 73.494C89.315 74.366 49.96 75 43.171 75c-5.332 0-23.112-1.487-39.384-2.567L0 66.677c15.55.39 35.888 1.696 46.68 1.823 13.464 0 43.728-2.774 46.145-1.823 2.416.872.69 5.945-1.439 6.817z" fill="#6A4444"/><path d="M34.873 65.795c-2.747.153-3.375 9.205.157 9.205 3.53 0 3.295-9.436-.157-9.205z" fill="#FF982F"/><path d="M39.58 65.795c-2.747.153-3.374 9.205.157 9.205 3.53 0 3.217-9.436-.157-9.205z" fill="#FF982F"/><path d="M44.287 65.795c-2.747.153-3.374 9.205.157 9.205s3.217-9.436-.157-9.205zm10.767 0c-2.746.153-3.374 9.205.157 9.205 3.532 0 3.296-9.436-.157-9.205z" fill="#FF982F"/><path d="M59.761 65.795c-2.746.153-3.374 9.205.157 9.205 3.532 0 3.218-9.436-.157-9.205z" fill="#FF982F"/><path d="M64.472 65.795c-2.746.153-3.374 9.205.157 9.205s3.218-9.436-.157-9.205z" fill="#FF982F"/><defs><linearGradient id="paint0_linear" x1="95.2" y1="79.28" x2="1.676" y2=".881" gradientUnits="userSpaceOnUse"><stop offset=".166" stop-color="#022833"/><stop offset=".269" stop-color="#032C38"/><stop offset=".387" stop-color="#053845"/><stop offset=".511" stop-color="#094B5C"/><stop offset=".641" stop-color="#0F677C"/><stop offset=".774" stop-color="#168AA5"/><stop offset=".845" stop-color="#1A9FBE"/></linearGradient><linearGradient id="paint1_linear" x1="30.609" y1="40.349" x2="47.026" y2="57.874" gradientUnits="userSpaceOnUse"><stop/><stop offset="1" stop-opacity="0"/></linearGradient><linearGradient id="paint2_linear" x1="74.632" y1="57.205" x2="14.865" y2="50.149" gradientUnits="userSpaceOnUse"><stop/><stop offset="1" stop-opacity="0"/></linearGradient><linearGradient id="paint3_linear" x1="83.63" y1="11.536" x2="24.555" y2="27.723" gradientUnits="userSpaceOnUse"><stop stop-color="#fff"/><stop offset="1" stop-color="#fff" stop-opacity="0"/></linearGradient><linearGradient id="paint4_linear" x1="72.723" y1="52.801" x2="20.401" y2="46.624" gradientUnits="userSpaceOnUse"><stop/><stop offset="1" stop-opacity="0"/></linearGradient><linearGradient id="paint5_linear" x1="40.014" y1="11.48" x2="40.014" y2="23.683" gradientUnits="userSpaceOnUse"><stop stop-color="#94F1BF"/><stop offset="1" stop-color="#60D395"/></linearGradient><linearGradient id="paint6_linear" x1="32.781" y1="27.489" x2="40.044" y2="16.95" gradientUnits="userSpaceOnUse"><stop/><stop offset="1" stop-opacity="0"/></linearGradient><linearGradient id="paint7_linear" x1="36.723" y1="7.766" x2="41.153" y2="20.983" gradientUnits="userSpaceOnUse"><stop/><stop offset="1" stop-opacity="0"/></linearGradient><linearGradient id="paint8_linear" x1="33.613" y1="17.911" x2="44.289" y2="15.587" gradientUnits="userSpaceOnUse"><stop stop-color="#fff"/><stop offset="1" stop-color="#fff" stop-opacity="0"/></linearGradient><linearGradient id="paint9_linear" x1="35.6" y1="97.988" x2="90.963" y2="-58.544" gradientUnits="userSpaceOnUse"><stop offset=".225" stop-color="#022833"/><stop offset=".29" stop-color="#074251"/><stop offset=".405" stop-color="#0F6A80"/><stop offset=".506" stop-color="#1587A2"/><stop offset=".589" stop-color="#1999B7"/><stop offset=".644" stop-color="#1A9FBE"/></linearGradient><linearGradient id="paint10_linear" x1="70.206" y1="60.526" x2="43.63" y2="40.634" gradientUnits="userSpaceOnUse"><stop stop-color="#fff"/><stop offset="1" stop-color="#fff" stop-opacity="0"/></linearGradient><linearGradient id="paint11_linear" x1="41.962" y1="61.399" x2="54.051" y2="46.919" gradientUnits="userSpaceOnUse"><stop stop-color="#fff"/><stop offset="1" stop-color="#fff" stop-opacity="0"/></linearGradient><linearGradient id="paint12_linear" x1="35.272" y1="97.872" x2="90.635" y2="-58.66" gradientUnits="userSpaceOnUse"><stop offset=".225" stop-color="#022833"/><stop offset=".29" stop-color="#074251"/><stop offset=".405" stop-color="#0F6A80"/><stop offset=".506" stop-color="#1587A2"/><stop offset=".589" stop-color="#1999B7"/><stop offset=".644" stop-color="#1A9FBE"/></linearGradient><linearGradient id="paint13_linear" x1="45.297" y1="38.692" x2="60.599" y2="65.078" gradientUnits="userSpaceOnUse"><stop/><stop offset="1" stop-opacity="0"/></linearGradient><linearGradient id="paint14_linear" x1="79.881" y1="41.168" x2="46.018" y2="41.407" gradientUnits="userSpaceOnUse"><stop stop-color="#fff"/><stop offset="1" stop-color="#fff" stop-opacity="0"/></linearGradient><linearGradient id="paint15_linear" x1="71.357" y1="49.421" x2="41.633" y2="36.645" gradientUnits="userSpaceOnUse"><stop stop-color="#fff"/><stop offset="1" stop-color="#fff" stop-opacity="0"/></linearGradient><linearGradient id="paint16_linear" x1="34.481" y1="97.592" x2="89.844" y2="-58.939" gradientUnits="userSpaceOnUse"><stop offset=".225" stop-color="#022833"/><stop offset=".29" stop-color="#074251"/><stop offset=".405" stop-color="#0F6A80"/><stop offset=".506" stop-color="#1587A2"/><stop offset=".589" stop-color="#1999B7"/><stop offset=".644" stop-color="#1A9FBE"/></linearGradient><linearGradient id="paint17_linear" x1="47.367" y1="27.721" x2="60.95" y2="42.448" gradientUnits="userSpaceOnUse"><stop stop-color="#fff"/><stop offset="1" stop-color="#fff" stop-opacity="0"/></linearGradient><linearGradient id="paint18_linear" x1="70.056" y1="45.934" x2="41.431" y2="29.709" gradientUnits="userSpaceOnUse"><stop stop-color="#fff"/><stop offset="1" stop-color="#fff" stop-opacity="0"/></linearGradient><linearGradient id="paint19_linear" x1="43.902" y1="24.808" x2="64.139" y2="53.434" gradientUnits="userSpaceOnUse"><stop/><stop offset="1" stop-opacity="0"/></linearGradient><linearGradient id="paint20_linear" x1="41.119" y1="30.752" x2="60.526" y2="68.884" gradientUnits="userSpaceOnUse"><stop/><stop offset="1" stop-opacity="0"/></linearGradient><linearGradient id="paint21_linear" x1="87.654" y1="-3.187" x2="52.375" y2="23.791" gradientUnits="userSpaceOnUse"><stop offset=".47" stop-color="#F9ED25"/><stop offset=".524" stop-color="#FAE129"/><stop offset=".621" stop-color="#FBC034"/><stop offset=".75" stop-color="#FD8C45"/><stop offset=".805" stop-color="#FE744D"/></linearGradient><linearGradient id="paint22_linear" x1="41.911" y1="26.091" x2="76.775" y2="19.081" gradientUnits="userSpaceOnUse"><stop offset=".169" stop-color="#FB1E7D"/><stop offset=".444" stop-color="#F8367F"/><stop offset=".716" stop-color="#F64981"/></linearGradient><linearGradient id="paint23_linear" x1="83.44" y1="19.929" x2="43.872" y2="22.604" gradientUnits="userSpaceOnUse"><stop stop-color="#fff"/><stop offset="1" stop-color="#fff" stop-opacity="0"/></linearGradient><linearGradient id="paint24_linear" x1="74.593" y1="28.986" x2="48.583" y2="13.491" gradientUnits="userSpaceOnUse"><stop/><stop offset="1" stop-opacity="0"/></linearGradient><linearGradient id="paint25_linear" x1="49.202" y1="16.859" x2="49.34" y2="29.587" gradientUnits="userSpaceOnUse"><stop offset=".189" stop-color="#022833"/><stop offset=".873" stop-color="#1A9FBE"/></linearGradient><linearGradient id="paint26_linear" x1="48.593" y1="21.064" x2="50.272" y2="-1.353" gradientUnits="userSpaceOnUse"><stop stop-color="#022833"/><stop offset=".089" stop-color="#043340"/><stop offset=".253" stop-color="#0A5062"/><stop offset=".471" stop-color="#137E98"/><stop offset=".61" stop-color="#1A9FBE"/></linearGradient><linearGradient id="paint27_linear" x1="75.441" y1="19.98" x2="69.354" y2="32.362" gradientUnits="userSpaceOnUse"><stop offset=".11" stop-color="#022833"/><stop offset=".182" stop-color="#04323F"/><stop offset=".311" stop-color="#0A4E5F"/><stop offset=".482" stop-color="#137A93"/><stop offset=".61" stop-color="#1A9FBE"/></linearGradient><linearGradient id="paint28_linear" x1="71.948" y1="24.086" x2="79.073" y2="17.652" gradientUnits="userSpaceOnUse"><stop stop-color="#022833"/><stop offset=".094" stop-color="#053542"/><stop offset=".275" stop-color="#0B5568"/><stop offset=".52" stop-color="#168AA6"/><stop offset=".61" stop-color="#1A9FBE"/></linearGradient><linearGradient id="paint29_linear" x1="85.655" y1="22.733" x2="46.364" y2="7.653" gradientUnits="userSpaceOnUse"><stop stop-color="#fff"/><stop offset="1" stop-color="#fff" stop-opacity="0"/></linearGradient><linearGradient id="paint30_linear" x1="72.105" y1="33.92" x2="61.959" y2="24.236" gradientUnits="userSpaceOnUse"><stop stop-color="#fff"/><stop offset="1" stop-color="#fff" stop-opacity="0"/></linearGradient></defs></svg>